<svg width="10" height="6" viewBox="0 0 10 6" fill="none" xmlns="http://www.w3.org/2000/svg">
<path d="M9.22539 1.33316C9.28114 1.38896 9.30901 1.45313 9.30901 1.52568C9.30901 1.59822 9.28114 1.6624 9.22539 1.7182L5.32876 5.61887C5.27302 5.67467 5.20891 5.70258 5.13644 5.70258C5.06397 5.70258 4.99986 5.67467 4.94412 5.61887L1.04749 1.7182C0.99174 1.6624 0.963867 1.59822 0.963867 1.52568C0.963867 1.45313 0.99174 1.38896 1.04749 1.33316L1.46558 0.914629C1.52133 0.858826 1.58543 0.830924 1.6579 0.830924C1.73037 0.830924 1.79448 0.858826 1.85023 0.914629L5.13644 4.20425L8.42265 0.914629C8.4784 0.858826 8.54251 0.830924 8.61498 0.830924C8.68745 0.830924 8.75155 0.858826 8.8073 0.914629L9.22539 1.33316Z" fill="white"/>
</svg>
