<svg width="16" height="21" viewBox="0 0 16 21" fill="none" xmlns="http://www.w3.org/2000/svg">
<path d="M15.1196 5.88013C14.5331 5.29341 13.8263 5 13 5H2.99997C2.17366 5 1.46695 5.29341 0.880126 5.88013C0.293412 6.46695 0 7.17363 0 7.99997V17.9999C0 18.8262 0.293412 19.5329 0.880126 20.1198C1.46695 20.7066 2.17366 21 2.99997 21H12.9999C13.8262 21 14.5329 20.7066 15.1195 20.1198C15.7063 19.5329 15.9997 18.8262 15.9997 17.9999V7.99997C15.9997 7.17363 15.7063 6.46684 15.1196 5.88013ZM13.1038 17.1449C12.958 17.4643 12.6298 17.7422 12.1195 17.9784C11.6091 18.2147 11.1559 18.3328 10.7599 18.3328C10.6488 18.3328 10.5307 18.3242 10.4057 18.3068C10.2807 18.2894 10.175 18.2721 10.0882 18.2547C10.0014 18.2374 9.88669 18.2062 9.74447 18.161C9.602 18.1159 9.49948 18.0811 9.4372 18.0568C9.37452 18.0326 9.26003 17.9892 9.09347 17.9267C8.92677 17.864 8.8225 17.8258 8.78109 17.8122C7.64221 17.3953 6.5292 16.6437 5.44246 15.557C4.35572 14.47 3.60395 13.3572 3.18725 12.2185C3.17346 12.1768 3.13526 12.0726 3.07269 11.906C3.02987 11.7912 2.98644 11.6767 2.9424 11.5624C2.91825 11.4999 2.88348 11.3974 2.83831 11.2552C2.79318 11.1128 2.76202 10.9983 2.74462 10.9114C2.72718 10.8247 2.70996 10.7188 2.69255 10.5938C2.67519 10.4688 2.66654 10.3506 2.66654 10.2395C2.66654 9.84367 2.78464 9.39056 3.02081 8.88014C3.25694 8.36979 3.53466 8.04168 3.85416 7.89581C4.22222 7.74297 4.57291 7.66658 4.90628 7.66658C4.98257 7.66658 5.03821 7.67358 5.07283 7.68744C5.1076 7.70149 5.16492 7.76384 5.24482 7.87498C5.32472 7.98611 5.41148 8.12669 5.50521 8.29685C5.59898 8.46706 5.691 8.632 5.78126 8.79166C5.87003 8.94858 5.95685 9.10658 6.04173 9.26564C6.12506 9.42176 6.17712 9.52085 6.19792 9.56237C6.21875 9.59729 6.26392 9.66314 6.33331 9.76045C6.40271 9.85761 6.45492 9.94429 6.48958 10.0208C6.52424 10.0972 6.54164 10.1701 6.54164 10.2395C6.54164 10.3438 6.47039 10.4705 6.32806 10.6197C6.18566 10.769 6.02939 10.9063 5.85923 11.0313C5.68906 11.1563 5.53287 11.29 5.3905 11.4324C5.24825 11.5747 5.177 11.691 5.177 11.7813C5.177 11.8299 5.18914 11.8872 5.21348 11.9531C5.23778 12.0192 5.26036 12.073 5.2812 12.1146C5.30203 12.1563 5.33508 12.2153 5.38014 12.2918C5.42528 12.3683 5.45486 12.4168 5.46866 12.4377C5.85054 13.1252 6.28986 13.7172 6.78627 14.2138C7.28291 14.7105 7.87484 15.1496 8.56243 15.5316C8.58312 15.5456 8.63183 15.575 8.70852 15.6202C8.78481 15.6652 8.84399 15.6982 8.88558 15.719C8.92728 15.7398 8.98095 15.7624 9.04703 15.7866C9.1131 15.8108 9.17038 15.823 9.2192 15.823C9.32997 15.823 9.4828 15.7085 9.67745 15.4794C9.8725 15.2494 10.0705 15.0219 10.2713 14.7969C10.4725 14.5714 10.6356 14.4586 10.7608 14.4586C10.8302 14.4586 10.903 14.4758 10.9797 14.5105C11.0561 14.5452 11.1428 14.5974 11.2399 14.6668C11.3373 14.7365 11.4032 14.7815 11.438 14.8026L11.9898 15.1044C12.3579 15.2989 12.6652 15.4707 12.9118 15.62C13.1584 15.7694 13.2921 15.8717 13.313 15.9272C13.3268 15.9619 13.3335 16.0176 13.3335 16.094C13.3333 16.4271 13.2568 16.7778 13.1038 17.1449Z" fill="#DC6A19"/>
</svg>
