<svg width="9" height="6" viewBox="0 0 9 6" fill="none" xmlns="http://www.w3.org/2000/svg">
<path d="M8.88093 1.33315C8.93673 1.38896 8.96463 1.45313 8.96463 1.52567C8.96463 1.59822 8.93673 1.66239 8.88093 1.7182L4.98026 5.61887C4.92446 5.67467 4.86028 5.70257 4.78774 5.70257C4.71519 5.70257 4.65102 5.67467 4.59521 5.61887L0.694545 1.7182C0.638742 1.66239 0.61084 1.59822 0.61084 1.52567C0.61084 1.45313 0.638742 1.38896 0.694545 1.33315L1.11307 0.914626C1.16888 0.858822 1.23305 0.83092 1.30559 0.83092C1.37814 0.83092 1.44231 0.858822 1.49812 0.914626L4.78774 4.20425L8.07736 0.914626C8.13316 0.858822 8.19734 0.83092 8.26988 0.83092C8.34242 0.83092 8.4066 0.858822 8.4624 0.914626L8.88093 1.33315Z" fill="#C1282D"/>
</svg>
