<svg width="16" height="16" viewBox="0 0 16 16" fill="none" xmlns="http://www.w3.org/2000/svg">
<path fill-rule="evenodd" clip-rule="evenodd" d="M12.1254 0H3.8746C1.74366 0 0 1.71411 0 3.81089V12.1891C0 14.285 1.74366 16 3.8746 16H12.1254C14.2564 16 16 14.285 16 12.1891V3.81089C16 1.71411 14.2564 0 12.1254 0Z" fill="#DC6A19"/>
<path d="M8.12354 12.9486L11.8643 9.18234C11.9296 9.11778 11.974 9.03494 11.9918 8.94461C12.0088 8.85499 11.9993 8.76231 11.9643 8.6781C11.9281 8.59076 11.8688 8.51887 11.7952 8.46913C11.7193 8.41848 11.6302 8.39155 11.5392 8.39174H9.77481V3.17581C9.77485 3.15272 9.77035 3.12984 9.76159 3.10849C9.75282 3.08714 9.73996 3.06775 9.72373 3.05141C9.7075 3.03508 9.68823 3.02213 9.66702 3.01331C9.64581 3.00449 9.62308 2.99996 9.60013 3H6.39987C6.30429 3 6.22519 3.07853 6.22519 3.17581V8.39174H4.46082C4.36746 8.39174 4.27956 8.41939 4.20487 8.46913C4.13127 8.51891 4.07194 8.59076 4.0357 8.6781C4.00075 8.7623 3.99119 8.85499 4.00822 8.94461C4.02599 9.03494 4.0704 9.11779 4.13565 9.18234L7.87646 12.9486C7.90926 12.9815 7.95368 13 8 13C8.04632 13 8.09074 12.9815 8.12354 12.9486Z" fill="white"/>
</svg>
