<svg width="269" height="30" viewBox="0 0 269 30" fill="none" xmlns="http://www.w3.org/2000/svg">
<path d="M59.2312 24.24C57.3432 24.24 55.7752 23.872 54.5272 23.136C53.2792 22.4 52.3432 21.376 51.7192 20.064C51.1112 18.736 50.8072 17.184 50.8072 15.408C50.8072 13.68 51.1272 12.16 51.7672 10.848C52.4232 9.52 53.3832 8.488 54.6472 7.752C55.9272 7 57.5032 6.624 59.3752 6.624C60.5912 6.624 61.6072 6.744 62.4232 6.984C63.2392 7.224 63.8472 7.552 64.2472 7.968C64.6632 8.368 64.8712 8.824 64.8712 9.336C64.8712 9.864 64.6392 10.296 64.1752 10.632C63.7112 10.952 63.1192 11.112 62.3992 11.112C62.3992 10.568 62.2952 10.064 62.0872 9.6C61.8792 9.12 61.5432 8.728 61.0792 8.424C60.6312 8.12 60.0312 7.968 59.2792 7.968C57.9672 7.968 56.9112 8.256 56.1112 8.832C55.3272 9.408 54.7512 10.256 54.3832 11.376C54.0312 12.48 53.8552 13.824 53.8552 15.408C53.8552 16.992 54.0392 18.336 54.4072 19.44C54.7912 20.544 55.3992 21.384 56.2312 21.96C57.0792 22.52 58.2072 22.8 59.6152 22.8C60.0312 22.8 60.4312 22.784 60.8152 22.752C61.2152 22.704 61.5752 22.632 61.8952 22.536V18.768C61.8952 18.304 61.8072 17.952 61.6312 17.712C61.4712 17.472 61.2472 17.312 60.9592 17.232C60.6872 17.152 60.3672 17.112 59.9992 17.112H59.8552V16.032H66.4552V17.112H66.2872C65.9832 17.112 65.7112 17.16 65.4712 17.256C65.2312 17.336 65.0392 17.504 64.8952 17.76C64.7672 18 64.7032 18.368 64.7032 18.864V23.088C63.8712 23.472 63.0152 23.76 62.1352 23.952C61.2552 24.144 60.2872 24.24 59.2312 24.24ZM73.9423 24V22.92H74.6623C74.9823 22.92 75.2783 22.888 75.5503 22.824C75.8223 22.76 76.0383 22.616 76.1983 22.392C76.3743 22.152 76.4623 21.808 76.4623 21.36V17.136L72.0223 9.216C71.8623 8.912 71.7023 8.672 71.5423 8.496C71.3983 8.304 71.2303 8.168 71.0383 8.088C70.8463 7.992 70.6063 7.944 70.3183 7.944H70.0063V6.864H77.0143V7.944H76.2463C75.8143 7.944 75.5103 8.032 75.3343 8.208C75.1743 8.368 75.0943 8.568 75.0943 8.808C75.0943 9.016 75.1343 9.24 75.2143 9.48C75.3103 9.704 75.4063 9.904 75.5023 10.08L77.2783 13.392C77.4223 13.632 77.5503 13.872 77.6623 14.112C77.7743 14.352 77.8783 14.584 77.9743 14.808C78.0703 15.032 78.1583 15.248 78.2383 15.456C78.3183 15.664 78.3903 15.864 78.4543 16.056C78.5983 15.704 78.7983 15.28 79.0543 14.784C79.3103 14.288 79.5743 13.784 79.8463 13.272L81.3343 10.464C81.5103 10.176 81.6223 9.912 81.6703 9.672C81.7343 9.416 81.7663 9.2 81.7663 9.024C81.7663 8.656 81.6383 8.384 81.3823 8.208C81.1263 8.032 80.7583 7.944 80.2783 7.944H79.6303V6.864H85.6063V7.944H85.2703C85.0303 7.944 84.8143 8 84.6223 8.112C84.4303 8.224 84.2303 8.416 84.0223 8.688C83.8303 8.96 83.5983 9.336 83.3263 9.816L79.2703 17.16V21.264C79.2703 21.744 79.3503 22.104 79.5103 22.344C79.6703 22.584 79.8863 22.744 80.1583 22.824C80.4463 22.888 80.7503 22.92 81.0703 22.92H81.7903V24H73.9423ZM87.4841 24V22.92H87.8921C88.2121 22.92 88.4681 22.872 88.6601 22.776C88.8681 22.68 89.0521 22.504 89.2121 22.248C89.3881 21.976 89.5641 21.584 89.7401 21.072L95.0441 6.864H97.3001L102.604 21.528C102.748 21.896 102.892 22.184 103.036 22.392C103.196 22.584 103.38 22.72 103.588 22.8C103.812 22.88 104.068 22.92 104.356 22.92H104.692V24H97.7321V22.92H98.3801C98.7961 22.92 99.1241 22.832 99.3641 22.656C99.6041 22.48 99.7241 22.2 99.7241 21.816C99.7241 21.72 99.7161 21.624 99.7001 21.528C99.6841 21.432 99.6601 21.328 99.6281 21.216C99.5961 21.104 99.5641 21 99.5321 20.904L98.5961 18.288H92.4041L91.5641 20.688C91.5161 20.816 91.4761 20.952 91.4441 21.096C91.4121 21.224 91.3801 21.352 91.3481 21.48C91.3321 21.592 91.3241 21.704 91.3241 21.816C91.3241 22.184 91.4521 22.464 91.7081 22.656C91.9641 22.832 92.3161 22.92 92.7641 22.92H93.4601V24H87.4841ZM92.8841 17.016H98.1401L96.7241 12.888C96.5801 12.44 96.4281 12 96.2681 11.568C96.1241 11.136 95.9961 10.72 95.8841 10.32C95.7721 9.904 95.6681 9.504 95.5721 9.12C95.5081 9.408 95.4361 9.696 95.3561 9.984C95.2761 10.256 95.1881 10.536 95.0921 10.824C95.0121 11.112 94.9161 11.416 94.8041 11.736C94.7081 12.04 94.5881 12.36 94.4441 12.696L92.8841 17.016ZM109.127 24V22.92H109.631C109.967 22.92 110.263 22.88 110.519 22.8C110.791 22.72 111.007 22.56 111.167 22.32C111.327 22.08 111.407 21.72 111.407 21.24V9.528C111.407 9.064 111.319 8.72 111.143 8.496C110.983 8.272 110.767 8.128 110.495 8.064C110.239 7.984 109.951 7.944 109.631 7.944H109.127V6.864H113.783L122.351 19.776V9.528C122.351 9.064 122.263 8.72 122.087 8.496C121.927 8.272 121.711 8.128 121.439 8.064C121.183 7.984 120.895 7.944 120.575 7.944H120.071V6.864H126.167V7.944H125.663C125.343 7.944 125.047 7.984 124.775 8.064C124.503 8.144 124.287 8.304 124.127 8.544C123.967 8.768 123.887 9.128 123.887 9.624V24H122.063L112.967 10.344V21.24C112.967 21.72 113.039 22.08 113.183 22.32C113.343 22.56 113.559 22.72 113.831 22.8C114.103 22.88 114.399 22.92 114.719 22.92H115.223V24H109.127ZM133.979 24V22.92H134.651C134.971 22.92 135.267 22.888 135.539 22.824C135.811 22.744 136.027 22.592 136.187 22.368C136.347 22.128 136.427 21.784 136.427 21.336V8.136H134.219C133.755 8.136 133.387 8.224 133.115 8.4C132.843 8.56 132.643 8.784 132.515 9.072C132.387 9.36 132.299 9.68 132.251 10.032L132.107 11.184H130.763L130.883 6.864H144.803L144.923 11.184H143.579L143.435 10.032C143.403 9.68 143.315 9.36 143.171 9.072C143.043 8.784 142.843 8.56 142.571 8.4C142.299 8.224 141.923 8.136 141.443 8.136H139.235V21.24C139.235 21.72 139.307 22.08 139.451 22.32C139.611 22.56 139.827 22.72 140.099 22.8C140.371 22.88 140.667 22.92 140.987 22.92H141.659V24H133.979ZM149.772 24V22.92H150.276C150.612 22.92 150.908 22.88 151.164 22.8C151.436 22.72 151.652 22.56 151.812 22.32C151.972 22.08 152.052 21.72 152.052 21.24V9.624C152.052 9.128 151.972 8.768 151.812 8.544C151.652 8.304 151.436 8.144 151.164 8.064C150.908 7.984 150.612 7.944 150.276 7.944H149.772V6.864H157.116V7.944H156.612C156.292 7.944 155.996 7.984 155.724 8.064C155.452 8.144 155.236 8.304 155.076 8.544C154.932 8.768 154.86 9.128 154.86 9.624V21.24C154.86 21.72 154.932 22.08 155.076 22.32C155.236 22.56 155.452 22.72 155.724 22.8C155.996 22.88 156.292 22.92 156.612 22.92H157.116V24H149.772ZM162.395 24V22.92H162.899C163.219 22.92 163.507 22.888 163.763 22.824C164.035 22.744 164.251 22.592 164.411 22.368C164.587 22.144 164.675 21.808 164.675 21.36V9.528C164.675 9.064 164.587 8.72 164.411 8.496C164.251 8.272 164.035 8.128 163.763 8.064C163.507 7.984 163.219 7.944 162.899 7.944H162.395V6.864H169.211C170.635 6.864 171.811 7.04 172.739 7.392C173.667 7.728 174.355 8.232 174.803 8.904C175.267 9.576 175.499 10.424 175.499 11.448C175.499 12.296 175.323 13.016 174.971 13.608C174.635 14.184 174.203 14.656 173.675 15.024C173.147 15.376 172.603 15.656 172.043 15.864L175.211 20.976C175.419 21.312 175.619 21.6 175.811 21.84C176.003 22.08 176.195 22.28 176.387 22.44C176.579 22.6 176.779 22.72 176.987 22.8C177.211 22.88 177.443 22.92 177.683 22.92H177.779V24H177.299C176.563 24 175.939 23.976 175.427 23.928C174.931 23.864 174.515 23.76 174.179 23.616C173.843 23.456 173.539 23.232 173.267 22.944C173.011 22.656 172.747 22.288 172.475 21.84L169.355 16.464H167.459V21.36C167.459 21.808 167.539 22.144 167.699 22.368C167.875 22.592 168.091 22.744 168.347 22.824C168.619 22.888 168.915 22.92 169.235 22.92H169.739V24H162.395ZM169.043 15.264C169.939 15.264 170.635 15.128 171.131 14.856C171.627 14.584 171.979 14.176 172.187 13.632C172.411 13.088 172.523 12.408 172.523 11.592C172.523 10.744 172.403 10.064 172.163 9.552C171.939 9.04 171.571 8.672 171.059 8.448C170.547 8.208 169.867 8.088 169.019 8.088H167.459V15.264H169.043ZM184.389 24V22.92H185.061C185.381 22.92 185.677 22.888 185.949 22.824C186.221 22.744 186.437 22.592 186.597 22.368C186.757 22.128 186.837 21.784 186.837 21.336V8.136H184.629C184.165 8.136 183.797 8.224 183.525 8.4C183.253 8.56 183.053 8.784 182.925 9.072C182.797 9.36 182.709 9.68 182.661 10.032L182.517 11.184H181.173L181.293 6.864H195.213L195.333 11.184H193.989L193.845 10.032C193.813 9.68 193.725 9.36 193.581 9.072C193.453 8.784 193.253 8.56 192.981 8.4C192.709 8.224 192.333 8.136 191.853 8.136H189.645V21.24C189.645 21.72 189.717 22.08 189.861 22.32C190.021 22.56 190.237 22.72 190.509 22.8C190.781 22.88 191.077 22.92 191.397 22.92H192.069V24H184.389ZM200.181 24V22.92H200.685C201.021 22.92 201.317 22.88 201.573 22.8C201.845 22.72 202.061 22.56 202.221 22.32C202.381 22.08 202.461 21.72 202.461 21.24V9.528C202.461 9.064 202.373 8.72 202.197 8.496C202.037 8.272 201.821 8.128 201.549 8.064C201.293 7.984 201.005 7.944 200.685 7.944H200.181V6.864H207.525V7.944H207.021C206.701 7.944 206.405 7.984 206.133 8.064C205.861 8.144 205.645 8.304 205.485 8.544C205.325 8.768 205.245 9.128 205.245 9.624V14.424H212.637V9.624C212.637 9.128 212.557 8.768 212.397 8.544C212.237 8.304 212.021 8.144 211.749 8.064C211.493 7.984 211.197 7.944 210.861 7.944H210.357V6.864H217.701V7.944H217.197C216.877 7.944 216.581 7.984 216.309 8.064C216.037 8.144 215.821 8.304 215.661 8.544C215.501 8.768 215.421 9.128 215.421 9.624V21.36C215.421 21.808 215.501 22.144 215.661 22.368C215.837 22.592 216.053 22.744 216.309 22.824C216.581 22.888 216.877 22.92 217.197 22.92H217.701V24H210.357V22.92H210.861C211.197 22.92 211.493 22.88 211.749 22.8C212.021 22.72 212.237 22.56 212.397 22.32C212.557 22.08 212.637 21.72 212.637 21.24V15.696H205.245V21.24C205.245 21.72 205.325 22.08 205.485 22.32C205.645 22.56 205.861 22.72 206.133 22.8C206.405 22.88 206.701 22.92 207.021 22.92H207.525V24H200.181Z" fill="#303030"/>
<path d="M28.7025 15H32.1079C32.1079 7.8 25.0539 6 21.5268 6C22.4025 13.1027 26.6755 14.9595 28.7025 15Z" fill="#B79298"/>
<path d="M16.8842 15H19.7025C19.7025 8.96758 13.8647 7.45947 10.9458 7.45947C11.6705 13.4104 15.2067 14.966 16.8842 15Z" fill="#B79298"/>
<path d="M28.7025 15H32.1079C32.1079 22.2 25.0539 24 21.5268 24C22.4025 16.8973 26.6755 15.0405 28.7025 15Z" fill="#B79298"/>
<path d="M16.8842 15H19.7025C19.7025 21.0324 13.8647 22.5405 10.9458 22.5405C11.6705 16.5896 15.2067 15.034 16.8842 15Z" fill="#B79298"/>
<path d="M9.72955 14.9504C8.25272 13.1523 4.23921 10.635 -0.00017643 14.9504C1.70832 16.8234 6.04616 19.4457 9.72955 14.9504Z" fill="#B79298"/>
<path d="M239.425 15H236.02C236.02 7.8 243.074 6 246.601 6C245.725 13.1027 241.452 14.9595 239.425 15Z" fill="#B79298"/>
<path d="M251.243 15H248.425C248.425 8.96758 254.263 7.45947 257.182 7.45947C256.457 13.4104 252.921 14.966 251.243 15Z" fill="#B79298"/>
<path d="M239.425 15H236.02C236.02 22.2 243.074 24 246.601 24C245.725 16.8973 241.452 15.0405 239.425 15Z" fill="#B79298"/>
<path d="M251.243 15H248.425C248.425 21.0324 254.263 22.5405 257.182 22.5405C256.457 16.5896 252.921 15.034 251.243 15Z" fill="#B79298"/>
<path d="M258.398 14.9504C259.875 13.1523 263.888 10.635 268.128 14.9504C266.419 16.8234 262.081 19.4457 258.398 14.9504Z" fill="#B79298"/>
</svg>
