<svg width="27" height="20" viewBox="0 0 27 20" fill="none" xmlns="http://www.w3.org/2000/svg">
<path fill-rule="evenodd" clip-rule="evenodd" d="M11.5607 1.43934C12.1464 2.02513 12.1464 2.97487 11.5607 3.56066L5.12132 10L11.5607 16.4393C12.1464 17.0251 12.1464 17.9749 11.5607 18.5607C10.9749 19.1464 10.0251 19.1464 9.43934 18.5607L1.93934 11.0607C1.35355 10.4749 1.35355 9.52513 1.93934 8.93934L9.43934 1.43934C10.0251 0.853553 10.9749 0.853553 11.5607 1.43934Z" fill="#DED9C0"/>
<path fill-rule="evenodd" clip-rule="evenodd" d="M25.6252 10C25.6252 9.17157 24.9537 8.5 24.1252 8.5H3.55382C2.72539 8.5 2.05382 9.17157 2.05382 10C2.05382 10.8284 2.72539 11.5 3.55382 11.5H24.1252C24.9537 11.5 25.6252 10.8284 25.6252 10Z" fill="#DED9C0"/>
<path d="M11.5607 3.56066L10.8536 2.85355L11.5607 3.56066ZM11.5607 1.43934L10.8536 2.14645L11.5607 1.43934ZM5.12132 10L4.41421 9.29289C4.22668 9.48043 4.12132 9.73478 4.12132 10C4.12132 10.2652 4.22668 10.5196 4.41421 10.7071L5.12132 10ZM11.5607 16.4393L12.2678 15.7322L12.2678 15.7322L11.5607 16.4393ZM11.5607 18.5607L12.2678 19.2678L12.2678 19.2678L11.5607 18.5607ZM9.43934 18.5607L8.73223 19.2678H8.73223L9.43934 18.5607ZM1.93934 11.0607L1.23223 11.7678H1.23223L1.93934 11.0607ZM1.93934 8.93934L1.23223 8.23223H1.23223L1.93934 8.93934ZM9.43934 1.43934L8.73223 0.732233V0.732233L9.43934 1.43934ZM11.5607 3.56066L12.2678 4.26777C13.2441 3.29146 13.2441 1.70854 12.2678 0.732233L11.5607 1.43934L10.8536 2.14645C11.0488 2.34171 11.0488 2.65829 10.8536 2.85355L11.5607 3.56066ZM5.12132 10L5.82843 10.7071L12.2678 4.26777L11.5607 3.56066L10.8536 2.85355L4.41421 9.29289L5.12132 10ZM11.5607 16.4393L12.2678 15.7322L5.82843 9.29289L5.12132 10L4.41421 10.7071L10.8536 17.1464L11.5607 16.4393ZM11.5607 18.5607L12.2678 19.2678C13.2441 18.2915 13.2441 16.7085 12.2678 15.7322L11.5607 16.4393L10.8536 17.1464C11.0488 17.3417 11.0488 17.6583 10.8536 17.8536L11.5607 18.5607ZM9.43934 18.5607L8.73223 19.2678C9.70854 20.2441 11.2915 20.2441 12.2678 19.2678L11.5607 18.5607L10.8536 17.8536C10.6583 18.0488 10.3417 18.0488 10.1464 17.8536L9.43934 18.5607ZM1.93934 11.0607L1.23223 11.7678L8.73223 19.2678L9.43934 18.5607L10.1464 17.8536L2.64645 10.3536L1.93934 11.0607ZM1.93934 8.93934L1.23223 8.23223C0.255922 9.20854 0.255922 10.7915 1.23223 11.7678L1.93934 11.0607L2.64645 10.3536C2.45118 10.1583 2.45118 9.84171 2.64645 9.64645L1.93934 8.93934ZM9.43934 1.43934L8.73223 0.732233L1.23223 8.23223L1.93934 8.93934L2.64645 9.64645L10.1464 2.14645L9.43934 1.43934ZM11.5607 1.43934L12.2678 0.732233C11.2915 -0.244078 9.70854 -0.244078 8.73223 0.732233L9.43934 1.43934L10.1464 2.14645C10.3417 1.95118 10.6583 1.95118 10.8536 2.14645L11.5607 1.43934ZM24.1252 8.5V9.5C24.4014 9.5 24.6252 9.72386 24.6252 10H25.6252H26.6252C26.6252 8.61929 25.506 7.5 24.1252 7.5V8.5ZM3.55382 8.5V9.5H24.1252V8.5V7.5H3.55382V8.5ZM2.05382 10H3.05382C3.05382 9.72386 3.27767 9.5 3.55382 9.5V8.5V7.5C2.1731 7.5 1.05382 8.61929 1.05382 10H2.05382ZM3.55382 11.5V10.5C3.27767 10.5 3.05382 10.2761 3.05382 10H2.05382H1.05382C1.05382 11.3807 2.1731 12.5 3.55382 12.5V11.5ZM24.1252 11.5V10.5H3.55382V11.5V12.5H24.1252V11.5ZM25.6252 10H24.6252C24.6252 10.2761 24.4014 10.5 24.1252 10.5V11.5V12.5C25.506 12.5 26.6252 11.3807 26.6252 10H25.6252Z" fill="#DED9C0"/>
</svg>
