<svg width="15" height="20" viewBox="0 0 15 20" fill="none" xmlns="http://www.w3.org/2000/svg">
<path d="M0.347554 8.36522C0.229081 8.84006 0.0962086 9.51051 0.0347357 10.3022C-0.0910749 11.9223 0.0848141 13.9962 1.23362 15.9524C2.37856 17.902 4.02107 18.9359 5.40164 19.4865C6.09204 19.7619 6.7094 19.9129 7.15053 19.9946C7.16051 19.9965 7.17043 19.9982 7.18023 20C7.18334 19.9904 7.18651 19.9807 7.18965 19.9709C7.32852 19.538 7.4911 18.9146 7.58071 18.1669C7.7599 16.6718 7.64484 14.7129 6.49993 12.7633C5.35111 10.8071 3.63792 9.66412 2.17439 9.0064C1.45931 8.68504 0.815267 8.48507 0.347554 8.36522Z" fill="#E18399"/>
<path d="M14.6525 8.36522C14.1848 8.48507 13.5407 8.68503 12.8256 9.0064C11.3748 9.65838 9.67886 10.7872 8.53036 12.7123C9.49566 14.8013 9.57246 16.8341 9.38599 18.39C9.3306 18.8522 9.25177 19.2745 9.16532 19.647C9.30562 19.5988 9.45033 19.5455 9.59837 19.4865C10.9789 18.9359 12.6214 17.902 13.7664 15.9524C14.9152 13.9962 15.0911 11.9223 14.9653 10.3022C14.9038 9.51052 14.771 8.84006 14.6525 8.36522Z" fill="#E18399"/>
<path d="M7.55762 4C7.55355 4.0032 5.62838 5.51696 4.4398 8.13387C5.50151 8.79938 6.5917 9.71275 7.5 10.9601C8.41666 9.70124 9.51857 8.78257 10.5895 8.11554C9.4362 5.52253 7.56509 4.00605 7.55762 4Z" fill="#E18399"/>
<path d="M0.566196 7.62354C0.566228 7.62345 0.56634 7.62318 0.566394 7.62304C0.5665 7.62275 0.566586 7.62253 0.56664 7.62238C0.56656 7.6226 0.56641 7.62296 0.566196 7.62354Z" fill="#E18399"/>
</svg>
