<svg width="16" height="21" viewBox="0 0 16 21" fill="none" xmlns="http://www.w3.org/2000/svg">
<path d="M7.99968 5C4.80452 5 2.20508 7.59944 2.20508 10.7946C2.20508 14.7598 7.39068 20.581 7.61146 20.8269C7.81883 21.0579 8.1809 21.0575 8.3879 20.8269C8.60868 20.581 13.7943 14.7598 13.7943 10.7946C13.7942 7.59944 11.1948 5 7.99968 5ZM7.99968 13.71C6.39211 13.71 5.0843 12.4021 5.0843 10.7946C5.0843 9.187 6.39215 7.87919 7.99968 7.87919C9.60721 7.87919 10.915 9.18704 10.915 10.7946C10.915 12.4022 9.60721 13.71 7.99968 13.71Z" fill="#DC6A19"/>
</svg>
