<svg width="400" height="102" viewBox="0 0 400 102" fill="none" xmlns="http://www.w3.org/2000/svg">
<path fill-rule="evenodd" clip-rule="evenodd" d="M23.1072 63.7889C23.1336 64.1121 23.094 64.2026 23.2394 64.4741L23.6888 64.9524C24.1647 65.379 24.1647 65.3661 24.5613 65.8832L26.4913 68.0679C26.5045 68.0938 26.5309 68.1197 26.5574 68.1455L28.0379 69.6839C30.1266 72.0496 30.0208 71.1706 30.8536 70.369C31.2634 69.9812 31.6864 69.5546 32.1359 69.1539C32.1359 69.1539 32.202 69.0892 32.3077 68.9987C32.625 68.7273 32.9423 68.4816 33.2595 68.2489L33.4049 68.1843C34.6475 67.3828 36.6304 66.4261 38.7587 66.7881C39.1553 66.8269 39.3932 66.9045 39.6973 67.0467C39.9088 67.1242 40.1071 67.2018 40.3054 67.3052C40.4111 68.8177 40.0806 70.6276 39.4197 71.8169L38.5604 73.1226C38.3093 73.4329 37.8202 74.0275 37.5425 74.299L37.1724 74.5834C36.4057 75.3203 35.5993 75.8891 34.7665 76.3157C34.436 76.5226 34.1584 76.6648 33.7883 76.7553C33.2992 76.9492 32.8101 77.0914 32.3077 77.1948H32.2945C27.0597 78.3324 21.8381 75.2944 21.8249 75.2944L21.0979 74.9583L20.5162 74.6998C19.3 74.131 18.2557 73.6914 17.2378 72.9933L15.4004 71.9462C15.0567 71.7782 14.8452 71.6489 14.4883 71.4291L12.7433 70.3044C12.1749 69.8132 11.699 69.6193 11.1174 69.1668C10.853 68.947 10.615 68.7919 10.3374 68.5721C9.02872 67.5379 7.53495 66.5942 6.27912 65.4695L0.885687 61.0871C0.541988 60.7897 0.396576 60.57 0 60.8027L1.46733 62.3927C4.54741 65.5729 12.4525 73.1226 25.1694 80.9696C36.1545 86.619 41.3761 83.8783 41.7198 83.6844H41.733V83.6715C50.1405 77.7636 46.2804 71.3515 44.2711 68.8953C43.9539 68.5463 43.6498 68.236 43.3326 67.8611C42.2089 66.5425 40.8738 64.7326 39.5651 63.6467C38.9438 63.1555 38.0184 62.1471 36.9477 61.3198C30.8668 57.5708 25.0107 62.0825 25.0107 62.0825C24.4688 62.5737 23.9003 63.1296 23.1072 63.7889ZM263.102 64.9783L263.327 64.3448C263.472 62.6254 263.313 52.6454 263.313 50.7709C263.313 47.9397 263.115 38.5156 263.353 36.4601C263.617 34.1848 263.617 33.5126 264.992 31.8708C265.019 31.8449 265.045 31.8191 265.058 31.7932C265.072 31.7674 265.098 31.7415 265.124 31.7157C265.746 30.9659 266.658 30.2031 267.636 29.9317C268.548 29.6731 268.112 29.9963 269.024 29.5438C269.487 29.3111 270.174 29.4016 270.809 29.4016C272.316 29.4016 285.469 29.1043 285.495 29.5955L284.966 32.375C284.596 42.8592 280.644 44.6303 280.644 44.6303C279.295 45.5999 279.203 44.8113 278.344 43.8546C278.33 43.8288 278.304 43.8029 278.278 43.7771L275.726 41.114C275.039 40.4676 273.915 39.0714 272.355 39.0327C271.655 39.0197 270.518 38.8258 270.016 39.3171C269.288 40.041 269.169 40.6486 269.355 41.825C269.513 42.7429 270.055 43.7641 270.531 44.3847C270.756 44.6691 270.901 44.8759 271.007 45.0569C271.575 45.8326 272.131 46.5306 272.673 47.177L273.836 48.3793C274.166 48.7413 274.418 48.8835 274.735 49.2713C274.854 49.4264 274.999 49.5945 275.145 49.7755C278.172 52.5678 280.578 53.3822 281.952 53.602C282.375 53.602 282.798 53.602 283.222 53.6408C284.041 54.675 284.676 55.7738 285.575 56.7563L286.54 58.1525C286.949 58.786 287.518 59.2772 287.914 59.9236C288.575 61.0354 289.672 62.0566 290.241 63.0779L296.864 71.6877C297.591 72.6314 299.151 74.2085 300.05 75.4884C300.644 76.3416 301.424 76.8845 302.046 77.6343C302.574 78.2678 302.046 77.9317 302.931 78.3195C302.918 77.8024 302.786 77.7378 302.522 77.4275C302.244 77.0914 302.231 76.988 301.966 76.6131L300.089 74.3766C299.759 73.9629 299.865 73.8853 299.587 73.5104C299.23 73.0451 298.754 72.5021 298.358 71.985L294.273 66.452C294.088 66.1547 293.969 65.9608 293.704 65.6893C293.678 65.6634 293.651 65.6376 293.625 65.6246L291.351 62.535C291.113 62.2505 290.994 61.9661 290.809 61.6817C290.638 61.4232 290.386 61.2163 290.188 60.9449L284.768 54.0286C284.583 53.7959 284.53 53.783 284.557 53.2788C284.914 53.2013 285.152 53.2142 285.429 53.1625C286.236 52.9944 288.179 51.8568 288.826 51.0682L289.17 50.5899C290.571 48.6637 291.206 41.6699 291.867 39.0844C292.197 37.7787 292.673 35.219 293.321 34.1202C293.889 33.1635 294.22 32.2845 295.291 31.7286C295.833 31.4442 296.388 31.3666 296.586 30.8754L296.414 30.578C296.15 30.229 295.846 29.9963 295.727 29.4663H295.753L291.246 21.8778H255.038C252.91 21.8778 249.645 21.6968 247.649 21.9424C247.649 22.7181 250.345 25.3294 250.861 25.9758C251.086 26.2473 251.006 26.1439 251.257 26.3895L253.65 28.6648C254.047 29.0655 254.1 29.337 254.893 29.3887C256.347 29.4792 255.845 29.5697 255.845 31.9354V57.4156C255.845 59.4711 255.395 59.5875 257.616 61.1517L258.317 61.6947C258.806 62.1342 261.965 64.8748 262.6 65.017L262.97 65.0041C263.009 65.0041 263.062 64.9912 263.102 64.9783ZM335.014 21.8778L323.355 21.8132C322.813 21.8132 322.879 21.7614 322.483 21.9812C322.615 22.4466 323.355 23.1059 323.672 23.5584C324.465 24.7219 327.665 28.0959 328.801 29.0397C329.145 29.3241 329.396 29.3628 329.766 29.3628C329.885 30.8107 329.78 43.9968 329.78 45.8972C329.78 46.3626 329.727 46.7763 329.621 47.1512C329.449 47.7846 329.145 48.3276 328.801 48.8059C326.713 52.18 322.84 54.4552 322.84 54.4552C313.758 61.0741 307.307 57.17 307.307 57.17C307.214 57.1312 307.135 57.0925 307.029 57.0407C306.329 56.6917 306.791 54.5716 306.963 54.0545C307.122 53.6149 307.148 53.1237 307.294 52.6971C307.677 51.5595 309.25 49.5815 310.149 48.7283C310.757 48.1466 311.193 47.6166 311.947 47.0995C315.913 43.8805 321.28 42.5877 321.28 42.5877C321.491 42.0189 321.227 41.8896 320.843 41.4889L319.561 40.0281C319.548 40.0022 319.521 39.9764 319.495 39.9505L317.71 38.0243C317.473 37.7658 317.208 37.4555 316.944 37.1323C316.243 36.2791 315.106 34.8053 314.141 35.1285L313.877 35.2707L313.599 35.4129C313.573 35.4259 313.533 35.4388 313.507 35.4517C308.973 37.5718 307.095 38.0243 306.368 38.0889C304.399 36.2274 305.562 32.1811 305.562 32.1811C305.562 30.1644 311.167 23.5584 311.167 23.5584C314.234 19.1242 316.812 21.0504 316.812 21.0504C320.05 25.1872 313.031 27.3849 313.031 27.3849C309.673 27.7081 310.942 29.1431 310.942 29.1431L315.225 32.7757C319.958 35.8913 321.808 28.7165 321.808 28.7165C324.003 21.0504 314.564 16.138 314.564 16.138C306.434 14.2247 300.948 23.3903 300.948 23.3903C297.657 28.7165 299.19 32.9826 299.19 32.9826C300.684 36.1369 302.389 38.5802 304.359 40.2091L304.134 40.4418C304.029 40.5452 303.989 40.5969 303.857 40.7262L302.429 42.3163C301.292 43.5314 300.882 44.7983 300.155 46.2075C299.508 47.5002 299.917 50.1633 300.552 51.3138C301.874 53.7313 303.553 55.3731 305.469 57.3639C306.672 58.605 307.73 59.9365 308.999 61.1129C309.435 61.5137 309.7 61.6688 310.083 62.0825C317.473 68.0292 327.546 63.1684 327.546 63.1684L329.832 61.7464C331.577 60.5312 331.075 61.1258 332.516 62.1213C332.873 62.3669 332.965 62.4057 333.23 62.6642C333.811 63.2072 336.019 65.017 336.68 65.017C337.315 65.03 337.169 64.2414 337.169 63.7889V39.1231C337.169 37.016 337.288 36.0593 337.539 34.2365C337.764 32.6464 339.416 30.8495 340.844 30.2031L341.042 30.0997C341.069 30.0868 341.108 30.0609 341.135 30.048L343.131 29.4663C343.342 30.4875 343.157 55.0499 343.157 58.773C343.157 60.208 344.387 60.738 345.669 61.8369C346.198 62.2764 346.687 62.6513 347.202 63.065C348.022 63.7114 349.357 65.0817 350.534 65.3144C350.679 62.0049 350.56 58.4369 350.56 55.1145C350.56 50.9389 350.296 38.0889 350.785 34.8829C351.102 32.7757 352.213 31.1339 354.024 30.3453C355.557 29.686 355.306 30.0222 356.059 29.7507C356.007 28.8716 352.649 26.6868 351.75 25.6914C351.737 25.6785 351.71 25.6397 351.684 25.6268C351.671 25.6009 351.644 25.5751 351.618 25.5492C351.591 25.5104 351.525 25.4199 351.499 25.3812C351.142 24.9287 350.957 24.9287 350.573 24.5409C349.846 23.804 349.635 23.4679 348.762 22.7698C347.467 21.7097 348.247 21.8778 346.026 21.8778H335.014ZM116.58 22.0071C116.765 22.4595 116.99 22.5242 117.307 22.9896C117.479 23.2352 117.466 23.2093 117.651 23.4679L120.638 26.7903C121.048 27.1652 121.18 27.191 121.577 27.6306C121.921 28.0313 122.978 29.2077 123.454 29.3499C125.345 29.9058 136.872 28.7165 137.718 29.5826C137.956 29.8282 137.876 29.8024 137.876 30.2936C137.929 33.3445 138.841 38.8387 136.845 40.8942C136.581 41.1528 136.541 41.2045 136.316 41.4889C135.47 42.6265 134.043 43.609 132.681 44.1778C132.377 44.3071 132.285 44.2942 131.981 44.4493C131.637 44.6303 131.875 44.7466 131.108 44.7337C130.407 44.7079 129.297 43.3505 128.742 42.7687C128.345 42.355 128.094 42.0706 127.724 41.7345C127.142 41.2045 126.653 40.5193 125.9 40.3383C124.869 40.1056 124.313 40.4547 124.128 41.6052C123.798 43.8029 126.481 46.2333 127.949 47.7329C128.041 47.8234 128.107 47.888 128.16 47.9397L128.676 48.5086C128.702 48.5344 128.729 48.5603 128.742 48.5861C130.064 50.1891 131.571 51.2363 132.747 52.9556C133.012 53.3435 133.382 53.7442 133.673 54.1062L138.498 60.5312C139.145 61.3456 139.701 62.4186 140.401 63.1684L142.04 65.4954C142.397 65.9349 142.529 66.1159 142.926 66.6847C143.257 67.1889 143.455 67.4733 143.785 67.874C144.116 68.2489 144.38 68.5075 144.697 68.8953L148.571 73.95C148.928 74.4671 148.544 73.9888 149.099 74.48C149.734 75.0359 150.144 75.915 150.765 76.5355L150.897 76.6777C150.924 76.6906 150.95 76.7294 150.977 76.7423C151.717 77.4792 152.18 78.1127 152.84 78.8754L155.603 82.0038C156.37 82.6761 156.899 83.4647 157.639 84.0852L159.199 85.5719C159.331 85.6882 159.331 85.6753 159.424 85.7658C159.437 85.7787 159.463 85.8046 159.49 85.8304C161.05 87.4334 162.491 89.0623 164.235 90.4455C165.623 91.5315 166.562 92.7596 168.069 93.7421C168.545 94.0653 168.796 94.3238 169.259 94.6211C169.444 94.7504 169.629 94.8926 169.814 95.0348L176.503 98.7192C176.529 98.745 176.569 98.758 176.595 98.7709L177.957 99.3526L178.433 99.5465C178.459 99.5595 178.486 99.5853 178.525 99.5983C178.724 99.6758 178.975 99.7792 179.279 99.8956C179.834 100.064 180.376 100.167 180.693 100.348C180.707 100.361 180.733 100.374 180.746 100.387C185.545 101.848 196.226 103.826 210.08 98.5899L211.018 98.1374C211.164 98.0599 211.164 98.0728 211.309 98.0082L213.979 96.4181C214.68 95.9785 215.473 95.6166 216.094 95.0995L226.062 87.679C226.207 87.5886 226.445 87.4464 226.564 87.3559L230.477 85.184C230.543 85.1452 230.715 85.0418 230.728 85.0289L232.129 84.4342C232.129 84.4342 241.66 79.5476 248.006 86.6319V86.619C238.792 72.3987 227.318 76.1994 225.348 76.975C225.255 77.0138 225.163 77.0655 225.057 77.1043L224.594 77.2982C221.62 78.5651 222.281 78.41 219.73 79.9096C218.064 80.8921 216.848 82.159 215.301 83.1932L210.172 87.0456C209.881 87.3171 209.405 87.5886 209.049 87.8342C208.004 88.5452 206.828 89.3855 205.691 89.9672L202.545 91.5315C202.399 91.5961 202.254 91.6737 202.095 91.7254C195.142 95.6295 187.462 94.8538 187.462 94.8538C177.124 95.5002 173.198 92.6303 173.198 92.6303L166.179 89.5018C165.954 89.3984 166.086 89.476 165.901 89.3596C165.809 89.295 165.531 89.1011 165.425 89.0106L160.468 85.546C160.19 85.3392 160.032 85.1452 159.728 84.9255L157.375 82.87C157.348 82.8571 157.322 82.8183 157.295 82.8054L153.356 78.4876C153.145 78.2031 153.039 78.0092 152.774 77.699L149.655 73.8207C149.43 73.5492 149.337 73.3682 149.086 73.0321L147.236 70.6147C147.05 70.369 146.931 70.1105 146.707 69.7873L140.705 61.6429C140.494 61.3198 140.335 61.2293 140.097 60.8544L134.056 52.8393C134.545 52.6454 135.114 52.6971 135.722 52.71C136.118 52.6583 136.554 52.5807 137.017 52.4644C137.136 52.3997 137.308 52.3351 137.665 52.2705C137.691 52.2705 137.718 52.2575 137.744 52.2575C139.436 51.7404 141.419 50.745 143.005 48.8835C143.362 48.4181 143.666 47.9785 143.944 47.5907C144.116 47.358 144.288 47.1253 144.459 46.9443L144.777 46.647C145.451 46.9185 146.204 47.9397 146.786 48.5603C147.526 49.3488 148.214 49.853 149.099 50.5123L149.522 50.7579C151.003 51.8051 152.814 52.8393 154.229 52.8651C154.466 53.0073 154.4 53.3822 154.4 55.1145C154.4 56.0195 154.162 62.4057 154.625 63.0003C154.863 63.3106 155.59 63.8536 155.987 64.2414C157.216 65.4178 159.516 67.0079 160.917 68.1326L161.446 68.417C162.279 68.5333 161.949 66.4003 161.949 65.909V44.2683C161.949 40.9072 161.711 37.2099 162.279 34.146C162.649 32.194 164.381 30.7849 166.126 30.0222C166.694 29.7765 166.8 29.9575 167.302 29.7895C167.924 29.5826 167.236 29.4404 168.373 29.4404C172.801 29.4404 177.256 29.2982 181.685 29.4663C181.804 31.8579 181.711 34.2753 181.698 36.6798C181.698 38.0114 181.513 38.787 181.09 39.7954C180.389 41.4372 177.838 43.7383 175.921 44.3071C175.022 44.5657 175.657 44.7854 174.375 44.682C173.965 44.5527 172.273 42.5102 171.863 42.0965C171.361 41.6052 171.004 41.295 170.501 40.8296C168.426 38.9034 165.663 41.6569 170.343 46.4143L172.511 48.793C172.868 49.2325 173.224 49.5298 173.661 49.9694C175.63 51.9085 175.273 51.7017 177.812 52.7359C178.182 52.891 178.168 52.9039 178.393 53.2142C178.42 53.24 178.433 53.2659 178.459 53.2917L180.892 56.6271C181.262 57.0537 181.5 57.5708 181.87 57.9974L194.296 74.2473C194.415 74.4412 194.388 74.4154 194.507 74.5964L199.187 79.6769C199.2 79.6898 199.227 79.7286 199.253 79.7415C199.636 80.1552 199.98 80.6335 200.575 80.8274C200.535 80.3233 200.562 80.5947 200.416 80.3491L200.046 79.9096C200.02 79.8967 199.993 79.8708 199.967 79.845L199.703 79.5735C199.042 78.9012 198.592 78.0222 197.958 77.3241L193.952 72.1531C193.463 71.5584 193.053 70.8991 192.604 70.3303C191.943 69.49 190.317 67.6801 189.934 66.8398C189.55 66.0125 187.951 63.957 187.382 63.2072L184.025 58.8765C183.787 58.5791 183.641 58.3206 183.403 57.9844L179.305 52.8522L181.46 52.2575C181.989 52.1412 181.777 52.1671 182.147 51.9731C182.756 51.65 183.8 51.3138 184.791 50.745C186.126 49.9823 187.581 48.0302 188.189 46.5824C188.704 46.5824 188.612 46.4919 188.982 46.7633L190.555 48.4698C190.581 48.4956 190.661 48.5732 190.7 48.599C191.348 49.2584 191.996 49.7755 192.71 50.2926C194.666 51.6629 198.143 53.3693 201.408 51.4302C201.448 51.4043 201.487 51.3785 201.527 51.3526C201.58 51.3268 201.619 51.3009 201.659 51.2751L201.685 51.2621C202.386 50.8097 202.452 50.7321 203.259 51.7275C204.237 52.9427 208.255 57.0537 209.498 57.8681L211.283 58.8765C211.283 58.8765 215.5 60.9578 221.66 59.1996H221.673C222.043 59.0833 221.779 59.1609 221.977 59.0962C222.175 59.0316 221.911 59.0187 222.374 58.9928C222.691 59.7814 222.717 59.9753 223.021 60.2726C223.021 60.2726 227.741 64.9136 229.499 65.3014C229.671 65.3532 229.856 65.379 230.014 65.379C230.424 61.2034 229.75 56.4978 230.054 52.2705C230.08 51.9344 230.12 51.6887 230.186 51.4819C230.649 49.0644 232.632 41.825 239.955 40.5323C240.048 40.4547 240.074 40.4159 240.999 40.403C241.594 40.3513 242.202 40.3254 242.85 40.3513C242.85 40.3513 244.661 40.571 245.15 42.4197C245.177 42.536 245.216 42.6524 245.256 42.7816C245.705 44.2037 245.904 45.6257 245.904 47.2546C245.904 51.0682 243.789 54.7913 240.259 56.1875C239.545 56.4719 240.061 56.278 239.598 56.64C239.849 57.3381 239.651 56.7434 240.418 57.7776L241.647 59.1609C242.321 60.0011 243.22 60.6605 243.828 61.5137C245.732 64.138 246.366 64.4224 249.129 62.3927C251.244 60.8285 252.645 57.6742 252.645 55.1145C252.645 52.9686 252.368 51.818 251.958 49.7884C251.68 48.3793 250.689 46.2462 249.737 45.0828L245.441 39.8988L241.832 36.3567C241.449 35.9818 241.065 35.581 240.629 35.219L240.048 34.8441L239.321 34.3787C236.703 32.9179 233.544 33.2799 231.772 33.6548C231.706 33.6806 231.601 33.7194 231.429 33.7711C231.204 33.8358 231.045 33.8746 230.873 33.9263C230.649 33.9909 231.032 34.0168 230.424 34.0168C230.688 33.3058 230.477 33.2023 231.006 32.5947C231.653 31.8191 232.182 31.1856 233.015 30.6039C233.663 30.1514 234.443 29.9187 235.196 29.7377C235.038 29.1431 235.183 29.4016 234.786 28.9492L233.2 27.5271C232.856 27.2557 232.433 26.9971 232.116 26.6739L231.323 25.9629C230.16 24.9287 229.208 23.6747 228.045 22.6405C227.529 22.1881 227.529 21.8778 226.709 21.8778H187.343C186.814 21.8778 186.867 21.8261 186.47 22.0458C186.602 22.5112 187.343 23.1705 187.66 23.623C188.466 24.7865 191.665 28.1606 192.789 29.1043C193.318 29.5438 193.648 29.4016 194.468 29.4016H221.686C222.255 29.4016 222.77 29.3499 222.691 29.9834L222.453 31.5347C222.453 32.2715 222.651 34.5856 222.321 34.9863C222.228 35.0639 222.453 35.2449 221.951 35.038C221.607 34.8958 219.941 32.905 217.905 31.9096L216.927 31.4054C215.856 30.94 214.376 30.4617 212.605 30.2548C212.472 30.2678 212.38 30.2678 212.314 30.2548H212.261C212.195 30.2419 212.142 30.229 212.076 30.2161C209.643 30.0221 206.709 30.4229 203.51 32.1035C199.729 34.689 199.015 38.9551 199.015 38.9551C197.508 42.1094 194.719 43.5702 194.719 43.5702C193.503 44.3847 192.525 44.8371 191.745 45.0569C191.665 45.1086 191.586 45.1603 191.52 45.212C191.427 45.212 191.322 45.1991 191.176 45.1991C189.669 45.4706 189.101 44.8371 189.101 44.8371C188.982 44.7854 188.836 44.7337 188.678 44.682C188.334 42.187 188.982 34.0685 188.572 32.5172C188.453 32.0388 186.364 29.7765 185.77 29.0009C185.386 28.4967 185.161 28.3933 184.725 27.9796L179.662 22.731C179.213 22.2785 179.067 21.8778 178.274 21.8778C174.56 21.8778 163.389 21.6968 160.494 21.9295L160.653 22.4725C161.354 23.4162 162.504 24.515 163.27 25.4975C163.522 25.8207 163.389 25.769 163.588 26.0792C163.178 26.0146 163.138 25.937 162.94 25.7043L161.102 23.8169C160.323 23.0154 159.794 21.8778 158.459 21.8778C155.326 21.8778 148.161 21.658 145.477 22.0071C145.649 22.4078 146.138 22.7827 146.403 23.0542C146.733 23.3903 146.998 23.8428 147.302 24.2177L150.091 27.191C150.673 27.7598 151.585 29.0784 152.365 29.337C153.938 29.8412 154.48 28.5743 154.414 30.7202C154.4 31.1727 154.4 31.6252 154.4 32.0776C154.4 33.7194 154.678 39.2912 154.268 40.222C153.7 41.5277 152.166 43.1953 151.003 43.9193C150.368 44.3071 148.637 45.1862 147.989 45.1862C145.755 45.1862 146.548 45.1732 144.618 44.5657C144.473 40.7391 144.605 36.8608 144.526 33.0213C144.433 28.6389 144.975 30.3324 142.358 27.2557L138.484 23.1447C137.704 22.4078 137.876 22.9637 137.215 22.4725C136.515 21.9554 137.03 21.8778 135.708 21.8778C132.007 21.8778 119.317 21.658 116.58 22.0071ZM94.1869 21.9295C94.0943 21.9554 93.9886 21.9812 93.8432 21.9941C92.4551 22.1622 83.6247 21.7485 83.1753 22.0976C83.0431 22.2398 82.9373 21.8907 83.162 22.3949L84.0213 23.455C84.4575 23.9462 84.8012 24.3599 85.2242 24.8511C85.9645 25.7173 87.4847 27.023 87.683 27.6047L89.6527 29.3628C90.6177 29.7636 111.015 28.9879 111.623 29.5697C111.98 29.9187 111.782 32.3879 111.782 32.8921C111.782 33.4221 111.993 35.8396 111.623 36.2015C111.094 36.7445 98.7739 36.2274 96.2094 36.3825C95.3501 36.4342 95.8921 36.4859 94.676 36.8996C94.0282 37.1194 94.5306 36.9255 94.1869 37.1452C92.7856 38.0243 92.6005 38.5156 91.8867 38.968C91.4637 38.8387 91.4108 38.6836 91.0936 38.3992C89.1636 36.7316 89.9567 39.9893 87.8416 41.9543C87.1807 41.7216 86.6122 41.0364 86.0306 40.5969L85.1185 39.873C84.4972 39.2524 82.3424 37.7658 81.5361 37.1065L76.1823 32.9567C75.7593 32.6594 75.6667 32.6594 75.6006 32.0647C75.5213 31.3925 75.4552 29.5697 75.7064 29.1043C76.8697 28.5872 81.1924 29.3241 82.5672 28.8587C82.435 28.3286 82.5143 28.5743 82.1706 28.2123L80.9941 26.9325C80.6504 26.5705 80.4257 26.3378 80.1481 26.0017C79.8308 25.6397 79.5664 25.5363 79.2888 25.226L76.6714 22.6017C76.526 22.4466 76.3674 22.1493 76.2087 21.9295H63.2407V21.9036C62.659 21.839 62.778 21.5546 62.4343 20.5333L62.3153 20.2489C62.2757 20.1196 62.2625 20.055 62.2228 19.9387C62.1832 19.7965 62.1171 19.6025 62.0774 19.4086C61.2314 15.8406 61.4429 12.3631 64.0074 9.75174C64.0867 9.66125 64.166 9.59661 64.2321 9.53197C65.5144 8.38142 69.0439 6.23545 76.1691 8.12287C76.1691 8.12287 80.7033 8.96316 91.3579 17.7798L91.239 17.8056L91.424 17.9607C91.3315 17.728 91.3051 17.6634 91.2654 17.5988C74.4638 0.0302206 64.827 -0.512738 61.271 0.172423C61.2182 0.211205 61.1256 0.249988 60.8877 0.301698C60.5572 0.366336 60.3589 0.418046 60.2135 0.469757C60.1077 0.495612 60.0152 0.534394 59.9359 0.573177C59.7905 0.637815 59.6186 0.741235 59.2617 0.896366C58.1249 1.40054 56.8955 2.39596 56.2874 3.4948C54.2516 7.19209 54.5689 10.9669 56.1288 14.5866C57.0144 16.6421 57.0541 17.0946 58.5611 19.163L59.3675 20.2748C59.5657 20.5075 59.7112 20.7402 59.9095 20.9858C60.6233 21.839 60.3192 21.6709 60.1871 21.7744C59.1824 22.2398 41.3761 21.6322 35.6258 21.8519C35.6258 21.8519 35.0573 21.8132 34.674 21.9036C34.5682 21.9166 34.4757 21.9166 34.3964 21.9295C34.3964 21.9683 34.3964 21.9941 34.3964 22.0329C34.251 22.1751 34.3038 22.4207 34.8591 22.8344C34.8591 22.8344 38.6001 27.8374 41.0853 29.4146L42.5262 29.4663C42.6319 31.47 42.513 33.8229 42.513 35.8654C42.513 37.8692 42.0239 39.1749 41.2043 41.0106C40.6887 42.1482 40.0013 43.3634 39.1553 44.3976C34.9516 49.6333 30.4703 48.4698 28.8311 47.7846C28.3816 47.72 28.223 47.7329 28.1833 47.4743C28.1437 47.2158 28.2098 46.6728 28.2098 45.4835V30.9917C28.2098 30.6039 28.0512 29.7377 28.4081 29.4921C29.3995 28.7682 36.5379 30.4746 35.2821 28.6518C35.2028 28.5355 34.9251 28.2511 34.8194 28.1347C34.251 27.5918 34.3171 27.553 33.8676 27.023C33.2595 26.2861 29.4788 22.0976 28.7914 21.9166C28.1834 21.7485 11.4743 21.8132 10.0863 21.9036C10.0995 22.563 10.0466 22.1881 10.43 22.6664C11.4478 23.9203 15.6251 28.975 16.643 29.3628C17.1718 29.5697 20.3576 29.4016 21.2829 29.4921C21.4812 33.267 21.3226 37.5848 21.3094 41.4243C21.2961 43.1048 21.5605 43.1824 22.7238 44.4881C23.0279 44.8242 23.2129 44.8759 23.4905 45.2379C24.8389 47.0348 26.3327 48.3405 27.8529 49.9435C28.4081 50.5253 28.7121 50.9648 29.3466 51.469L31.1841 52.9298C31.6997 53.3047 32.3871 53.7959 33.1273 54.2225C33.1273 54.2225 33.1538 54.2355 33.1934 54.2613C33.6032 54.5069 34.0395 54.7396 34.4625 54.9206C34.4625 54.9206 39.076 56.3427 42.1693 55.0887C42.2882 55.037 42.394 54.9853 42.513 54.9335C42.5262 56.1617 42.3808 58.2042 42.5262 59.3031C42.6319 60.1304 44.6413 61.462 45.3683 62.0696C45.6724 62.3281 45.7781 62.3281 46.0293 62.522L48.4748 64.4741C48.8185 64.7197 49.2019 65.1592 49.6381 65.198L50.0611 64.0604V44.4105C50.0611 41.0235 49.4927 35.1932 51.1319 32.4655C51.7268 31.483 52.4935 30.7073 53.5642 30.2678L53.8683 30.1514C53.9079 30.1385 53.9344 30.1126 53.974 30.0997C54.3706 29.9058 55.5603 29.5438 56.1023 29.5438L55.8776 56.3297C55.8776 57.1829 55.8247 58.2171 55.8776 59.0445C55.9437 60.2597 57.6093 61.2422 58.4686 61.9403C59.7773 63.0003 61.7734 65.0429 63.4654 65.3273C63.5844 58.5662 63.4786 51.7146 63.4786 44.9535C63.4786 41.7345 62.9102 35.6456 64.1925 32.9179C64.4569 32.362 64.8799 31.9354 65.3293 31.4959C65.5144 31.3149 65.8052 31.0434 65.9771 30.9142C66.1886 30.7719 66.2414 30.7719 66.4133 30.6427L67.3915 30.1126C67.603 30.0092 67.4576 30.0609 67.6559 29.9704C68.0657 29.7636 68.264 29.8024 68.7795 29.8412C69.2026 32.375 68.3565 41.0106 68.9249 42.5748C69.2158 43.3763 71.5291 45.5094 72.3487 46.5565L73.4856 47.901C74.8604 49.685 78.5485 52.8651 80.7165 54.0803C80.7694 54.1062 86.9956 56.9244 91.8338 53.1366C91.8471 53.1237 91.8735 53.0978 91.8867 53.0849C92.1643 52.8522 92.3626 52.6712 92.5212 52.5549C93.0368 52.1412 93.0632 52.3739 93.7506 53.2917L93.9225 53.5374C94.5966 54.4164 95.3634 55.0887 96.064 55.916C96.368 56.278 96.4077 56.4202 96.7646 56.7563C99.3952 59.2514 102.647 63.1943 106.415 64.4999L107.406 64.9395L107.499 64.9783C107.697 65.0558 108.186 65.2627 108.9 65.4824C109.019 65.4954 109.111 65.5083 109.336 65.6117C109.64 65.7022 109.984 65.7798 110.341 65.8573C110.446 65.8573 110.592 65.8573 110.817 65.922C110.922 65.9478 111.002 65.9737 111.055 65.9995C113.804 66.4779 117.651 66.4649 120.969 63.9311C121.233 63.6726 121.432 63.4399 121.841 63.1038C121.709 62.6254 116.131 56.5107 115.404 55.8902C113.659 57.4415 108.331 61.1646 100.413 57.5708C99.3952 57.1442 97.9411 56.4461 97.6767 55.9936C96.7778 54.4164 96.7382 50.0082 97.6503 48.3664C97.875 47.9785 98.0865 47.539 98.2716 47.2287L98.7739 46.4919C99.4745 45.5869 100.056 45.1345 101.021 44.6044L102.264 44.0615C103.361 43.4668 117.558 44.4234 118.272 43.7771C118.642 43.441 118.431 33.1377 118.431 32.7499C118.431 30.0609 118.642 30.3583 117.016 28.5484L111.491 22.7956C110.988 22.3044 110.883 22.0458 110.407 21.9295H94.1869ZM85.1449 45.8196C85.5547 45.4706 85.9381 45.1086 86.295 44.6561L87.7491 42.7299L80.4389 37.0806C79.7515 36.6411 79.6061 36.3567 78.998 35.9171C78.3106 35.4259 76.5524 33.9263 75.68 33.9392V47.7588C75.68 47.7588 80.1877 50.2538 85.1449 45.8196ZM222.241 45.5611C222.255 45.5352 222.268 45.4964 222.268 45.4577C222.347 45.212 222.387 44.9276 222.387 44.5398V39.873L222.426 37.9597C217.258 35.9042 212.419 38.3992 212.419 38.3992C211.058 38.968 209.749 39.8212 208.916 40.8296C208.229 41.657 207.105 43.0143 206.682 43.9451C206.458 44.4493 206.312 44.6561 206.127 45.1603C205.902 45.8067 205.797 45.755 205.664 46.4401C205.545 47.1253 205.413 47.2287 205.374 47.9268C205.308 49.0644 205.294 50.3572 205.453 51.3526C205.479 51.4819 205.493 51.5982 205.506 51.6887L205.519 51.7017C205.559 51.9473 205.585 52.0507 205.704 52.1153C206.206 52.7747 207.898 53.8606 213.675 52.5937C213.675 52.5937 220.761 49.8013 222.241 45.5611ZM370.164 29.518C370.204 30.1256 370.349 38.7741 370.151 39.4981C370.045 39.86 370.204 39.5627 370.006 39.7825C369.517 40.1832 361.334 39.9117 359.708 39.8988C358.571 39.8988 357.976 40.2091 357.077 40.7908C356.125 41.3855 356.363 42.0836 356.43 43.4668C356.456 43.8029 356.469 43.971 356.496 44.0615C356.482 44.6561 356.773 45.1086 356.773 45.1086L358.545 47.0348C358.571 47.0607 358.584 47.0995 358.611 47.1124C358.796 47.3451 358.783 47.3451 358.915 47.4356L365.405 54.4811C368.221 58.1267 370.508 60.1821 372.213 61.3456C372.663 61.7464 373.165 62.0696 373.72 62.2635L374.923 62.8323C375.227 62.8711 375.492 62.884 375.716 62.8711C377.012 62.7935 376.959 61.7981 376.946 60.4019L376.932 48.4568C376.932 47.9785 376.853 47.8493 377.091 47.5907C377.488 47.2417 383.317 47.3063 383.992 47.5519C384.52 48.0302 383.701 81.8746 384.137 82.7536L388.83 86.7224C389.636 87.3041 390.482 88.1574 391.553 88.0798C391.791 73.2777 391.579 58.424 391.566 43.609C391.566 43.609 389.901 32.362 399.921 30.1385C399.947 30.1126 399.974 30.0739 400 30.0351C399.696 29.4404 399.035 28.9492 398.506 28.5355C397.541 27.734 396.537 27.1005 395.677 26.1439C395.043 25.4199 394.355 24.7606 393.668 24.0238L391.698 21.8907C390.932 21.8649 372.782 21.7356 371.142 21.8778C369.741 21.9941 371.288 22.9249 372.253 24.2048L374.196 26.3895C374.672 26.9454 375.121 27.3461 375.624 27.8632C377.474 29.7765 376.932 29.4016 379.656 29.4016C380.634 29.4016 384.692 29.2077 385.194 29.5309C385.327 29.699 385.419 29.2724 385.247 29.9187L384.666 31.5217C383.727 33.978 384.481 37.4038 384.031 39.8342C382.749 40.0539 378.056 40.041 376.946 39.7307C376.88 37.1969 377.118 34.5856 376.946 32.0647C376.866 30.9529 375.505 29.8024 374.765 28.975L369.186 22.8603C368.961 22.6405 368.763 22.3303 368.538 22.1363C367.93 21.6063 359.576 21.8778 358.174 21.8778C356.654 21.8778 354.143 21.7356 352.755 21.9424C352.781 22.6017 352.688 22.0588 352.94 22.382L354.103 23.6876C354.116 23.7006 354.143 23.7394 354.169 23.7523L354.685 24.4633C355.266 25.3553 356.086 26.1439 356.905 26.9195L358.809 28.8716C359.496 29.5568 359.457 29.4404 360.541 29.4404C363.052 29.4275 368.115 29.1819 370.164 29.518ZM368.353 55.2697C369.953 55.2697 370.098 55.3214 370.098 53.8864C370.098 52.3222 370.177 48.793 370.019 47.4485L365.709 47.4226C364.163 47.4226 362.88 49.0515 363.251 50.6157C363.356 51.0811 365.26 53.1237 365.842 53.7571L367.401 55.0887C367.811 55.3214 367.772 55.2697 368.353 55.2697ZM158.459 20.3911C158.987 19.3828 158.022 20.236 159.807 18.2064C160.679 17.2239 161.949 16.4353 163.403 14.6513C163.654 14.341 163.865 14.0437 164.024 13.7722C164.751 12.557 163.588 10.6179 162.134 8.8856L160.798 7.42478C160.785 7.41185 160.746 7.36014 160.693 7.29551C160.534 7.14038 160.375 6.98525 160.23 6.83011L158.459 5.20124L157.771 4.58072C157.613 4.92976 157.652 5.26588 157.652 5.26588C157.454 7.30843 153.911 9.81638 153.898 9.82931C153.488 10.1784 152.999 10.592 152.232 11.5228C151.148 12.8156 151.994 13.6946 153.118 15.0262L157.401 19.693C157.798 20.0809 157.784 20.2101 158.459 20.3911Z" fill="#C1282D"/>
</svg>
