<svg xmlns="http://www.w3.org/2000/svg" width="400" height="144" fill="none" xmlns:v="https://vecta.io/nano"><path d="M124.231 138.24c-1.888 0-3.456-.368-4.704-1.104s-2.184-1.76-2.808-3.072c-.608-1.328-.912-2.88-.912-4.656 0-1.728.32-3.248.96-4.56.656-1.328 1.616-2.36 2.88-3.096 1.28-.752 2.856-1.128 4.728-1.128 1.216 0 2.232.12 3.048.36s1.424.568 1.824.984c.416.4.624.856.624 1.368 0 .528-.232.96-.696 1.296-.464.32-1.056.48-1.776.48 0-.544-.104-1.048-.312-1.512-.208-.48-.544-.872-1.008-1.176-.448-.304-1.048-.456-1.8-.456-1.312 0-2.368.288-3.168.864-.784.576-1.36 1.424-1.728 2.544-.352 1.104-.528 2.448-.528 4.032s.184 2.928.552 4.032c.384 1.104.992 1.944 1.824 2.52.848.56 1.976.84 3.384.84l1.2-.048a6.44 6.44 0 0 0 1.08-.216v-3.768c0-.464-.088-.816-.264-1.056a1.15 1.15 0 0 0-.672-.48 3.42 3.42 0 0 0-.96-.12h-.144v-1.08h6.6v1.08h-.168c-.304 0-.576.048-.816.144-.24.08-.432.248-.576.504-.128.24-.192.608-.192 1.104v4.224a12.44 12.44 0 0 1-2.568.864c-.88.192-1.848.288-2.904.288zm14.711-.24v-1.08h.72c.32 0 .616-.032.888-.096a1.07 1.07 0 0 0 .648-.432c.176-.24.264-.584.264-1.032v-4.224l-4.44-7.92c-.16-.304-.32-.544-.48-.72-.144-.192-.312-.328-.504-.408-.192-.096-.432-.144-.72-.144h-.312v-1.08h7.008v1.08h-.768c-.432 0-.736.088-.912.264-.16.16-.24.36-.24.6 0 .208.04.432.12.672l.288.6 1.776 3.312c.144.24.272.48.384.72l.312.696.264.648.216.6c.144-.352.344-.776.6-1.272l.792-1.512 1.488-2.808c.176-.288.288-.552.336-.792.064-.256.096-.472.096-.648 0-.368-.128-.64-.384-.816s-.624-.264-1.104-.264h-.648v-1.08h5.976v1.08h-.336c-.24 0-.456.056-.648.168s-.392.304-.6.576c-.192.272-.424.648-.696 1.128l-4.056 7.344v4.104c0 .48.08.84.24 1.08s.376.4.648.48c.288.064.592.096.912.096h.72V138h-7.848zm13.542 0v-1.08h.408c.32 0 .576-.048.768-.144.208-.096.392-.272.552-.528.176-.272.352-.664.528-1.176l5.304-14.208h2.256l5.304 14.664c.144.368.288.656.432.864.16.192.344.328.552.408.224.08.48.12.768.12h.336V138h-6.96v-1.08h.648c.416 0 .744-.088.984-.264s.36-.456.36-.84a1.75 1.75 0 0 0-.024-.288c-.016-.096-.04-.2-.072-.312l-.096-.312-.936-2.616h-6.192l-.84 2.4c-.048.128-.088.264-.12.408l-.096.384c-.016.112-.024.224-.024.336 0 .368.128.648.384.84.256.176.608.264 1.056.264h.696V138h-5.976zm5.4-6.984h5.256l-1.416-4.128-.456-1.32-.384-1.248-.312-1.2-.216.864-.264.84-.288.912a10.39 10.39 0 0 1-.36.96l-1.56 4.32zM174.127 138v-1.08h.504c.336 0 .632-.04.888-.12.272-.08.488-.24.648-.48s.24-.6.24-1.08v-11.712c0-.464-.088-.808-.264-1.032a1.07 1.07 0 0 0-.648-.432c-.256-.08-.544-.12-.864-.12h-.504v-1.08h4.656l8.568 12.912v-10.248c0-.464-.088-.808-.264-1.032a1.07 1.07 0 0 0-.648-.432c-.256-.08-.544-.12-.864-.12h-.504v-1.08h6.096v1.08h-.504c-.32 0-.616.04-.888.12s-.488.24-.648.48c-.16.224-.24.584-.24 1.08V138h-1.824l-9.096-13.656v10.896c0 .48.072.84.216 1.08.16.24.376.4.648.48s.568.12.888.12h.504V138h-6.096zm24.852 0v-1.08h.672c.32 0 .616-.032.888-.096.272-.08.488-.232.648-.456.16-.24.24-.584.24-1.032v-13.2h-2.208c-.464 0-.832.088-1.104.264a1.44 1.44 0 0 0-.6.672c-.128.288-.216.608-.264.96l-.144 1.152h-1.344l.12-4.32h13.92l.12 4.32h-1.344l-.144-1.152c-.032-.352-.12-.672-.264-.96a1.44 1.44 0 0 0-.6-.672c-.272-.176-.648-.264-1.128-.264h-2.208v13.104c0 .48.072.84.216 1.08.16.24.376.4.648.48s.568.12.888.12h.672V138h-7.68zm15.793 0v-1.08h.504c.336 0 .632-.04.888-.12.272-.08.488-.24.648-.48s.24-.6.24-1.08v-11.616c0-.496-.08-.856-.24-1.08-.16-.24-.376-.4-.648-.48-.256-.08-.552-.12-.888-.12h-.504v-1.08h7.344v1.08h-.504c-.32 0-.616.04-.888.12s-.488.24-.648.48c-.144.224-.216.584-.216 1.08v11.616c0 .48.072.84.216 1.08.16.24.376.4.648.48s.568.12.888.12h.504V138h-7.344zm12.623 0v-1.08h.504a3.57 3.57 0 0 0 .864-.096c.272-.08.488-.232.648-.456.176-.224.264-.56.264-1.008v-11.832c0-.464-.088-.808-.264-1.032a1.07 1.07 0 0 0-.648-.432c-.256-.08-.544-.12-.864-.12h-.504v-1.08h6.816c1.424 0 2.6.176 3.528.528.928.336 1.616.84 2.064 1.512.464.672.696 1.52.696 2.544 0 .848-.176 1.568-.528 2.16-.336.576-.768 1.048-1.296 1.416-.528.352-1.072.632-1.632.84l3.168 5.112c.208.336.408.624.6.864a4.16 4.16 0 0 0 .576.6c.192.16.392.28.6.36.224.08.456.12.696.12h.096V138h-.48c-.736 0-1.36-.024-1.872-.072-.496-.064-.912-.168-1.248-.312a3.06 3.06 0 0 1-.912-.672c-.256-.288-.52-.656-.792-1.104l-3.12-5.376h-1.896v4.896c0 .448.08.784.24 1.008.176.224.392.376.648.456.272.064.568.096.888.096h.504V138h-7.344zm6.648-8.736c.896 0 1.592-.136 2.088-.408s.848-.68 1.056-1.224c.224-.544.336-1.224.336-2.04 0-.848-.12-1.528-.36-2.04a2.07 2.07 0 0 0-1.104-1.104c-.512-.24-1.192-.36-2.04-.36h-1.56v7.176h1.584zM249.389 138v-1.08h.672c.32 0 .616-.032.888-.096.272-.08.488-.232.648-.456.16-.24.24-.584.24-1.032v-13.2h-2.208c-.464 0-.832.088-1.104.264a1.44 1.44 0 0 0-.6.672c-.128.288-.216.608-.264.96l-.144 1.152h-1.344l.12-4.32h13.92l.12 4.32h-1.344l-.144-1.152c-.032-.352-.12-.672-.264-.96a1.44 1.44 0 0 0-.6-.672c-.272-.176-.648-.264-1.128-.264h-2.208v13.104c0 .48.072.84.216 1.08.16.24.376.4.648.48s.568.12.888.12h.672V138h-7.68zm15.792 0v-1.08h.504c.336 0 .632-.04.888-.12.272-.08.488-.24.648-.48s.24-.6.24-1.08v-11.712c0-.464-.088-.808-.264-1.032a1.07 1.07 0 0 0-.648-.432c-.256-.08-.544-.12-.864-.12h-.504v-1.08h7.344v1.08h-.504c-.32 0-.616.04-.888.12s-.488.24-.648.48c-.16.224-.24.584-.24 1.08v4.8h7.392v-4.8c0-.496-.08-.856-.24-1.08-.16-.24-.376-.4-.648-.48-.256-.08-.552-.12-.888-.12h-.504v-1.08h7.344v1.08h-.504c-.32 0-.616.04-.888.12s-.488.24-.648.48c-.16.224-.24.584-.24 1.08v11.736c0 .448.08.784.24 1.008.176.224.392.376.648.456.272.064.568.096.888.096h.504V138h-7.344v-1.08h.504c.336 0 .632-.04.888-.12.272-.08.488-.24.648-.48s.24-.6.24-1.08v-5.544h-7.392v5.544c0 .48.08.84.24 1.08s.376.4.648.48.568.12.888.12h.504V138h-7.344z" fill="#303030"/><g fill="#b79298"><path d="M93.703 129h3.405c0-7.2-7.054-9-10.581-9 .876 7.103 5.149 8.959 7.176 9zm-11.819 0h2.818c0-6.032-5.838-7.541-8.757-7.541.725 5.951 4.261 7.507 5.938 7.541z"/><path d="M93.703 129h3.405c0 7.2-7.054 9-10.581 9 .876-7.103 5.149-8.959 7.176-9zm-11.819 0h2.818c0 6.032-5.838 7.541-8.757 7.541.725-5.951 4.261-7.507 5.938-7.541zm-7.154-.05c-1.477-1.798-5.49-4.315-9.73 0 1.709 1.873 6.046 4.496 9.73 0zm229.695.05h-3.405c0-7.2 7.054-9 10.581-9-.876 7.103-5.149 8.959-7.176 9zm11.818 0h-2.818c0-6.032 5.838-7.541 8.757-7.541-.725 5.951-4.261 7.507-5.939 7.541z"/><path d="M304.425 129h-3.405c0 7.2 7.054 9 10.581 9-.876-7.103-5.149-8.959-7.176-9zm11.818 0h-2.818c0 6.032 5.838 7.541 8.757 7.541-.725-5.951-4.261-7.507-5.939-7.541zm7.155-.05c1.477-1.798 5.49-4.315 9.73 0-1.709 1.873-6.047 4.496-9.73 0z"/></g><path fill-rule="evenodd" d="M23.107 63.789c.026.323-.013.414.132.685l.449.478c.476.427.476.414.872.931l1.93 2.185a.34.34 0 0 0 .066.078l1.48 1.538c2.089 2.366 1.983 1.487 2.816.685l1.282-1.215.172-.155.952-.75.145-.065c1.243-.801 3.226-1.758 5.354-1.396a2.56 2.56 0 0 1 .939.259c.212.078.41.155.608.258.106 1.513-.225 3.322-.886 4.512l-.859 1.306-1.018 1.176-.37.284a10.13 10.13 0 0 1-2.406 1.732c-.331.207-.608.349-.978.44a8.8 8.8 0 0 1-1.481.439h-.013c-5.235 1.138-10.456-1.9-10.47-1.9l-.727-.336-.582-.258c-1.216-.569-2.261-1.008-3.278-1.706L15.4 71.946c-.344-.168-.555-.297-.912-.517l-1.745-1.125c-.568-.491-1.044-.685-1.626-1.138-.264-.22-.502-.375-.78-.595-1.309-1.034-2.802-1.978-4.058-3.103L.886 61.087C.542 60.79.397 60.57 0 60.803l1.467 1.59c3.08 3.18 10.985 10.73 23.702 18.577 10.985 5.649 16.207 2.909 16.55 2.715h.013v-.013c8.408-5.908 4.547-12.32 2.538-14.776-.317-.349-.621-.659-.938-1.034-1.124-1.319-2.459-3.128-3.767-4.214-.621-.491-1.547-1.5-2.617-2.327-6.081-3.749-11.937.763-11.937.763-.542.491-1.11 1.047-1.904 1.706zm239.995 1.189l.225-.633c.145-1.719-.014-11.699-.014-13.574 0-2.831-.198-12.255.04-14.311.264-2.275.264-2.947 1.639-4.589.027-.026.053-.052.066-.078s.04-.052.066-.078c.622-.75 1.534-1.513 2.512-1.784.912-.259.476.065 1.388-.388.463-.233 1.15-.142 1.785-.142 1.507 0 14.66-.297 14.686.194l-.529 2.779c-.37 10.484-4.322 12.255-4.322 12.255-1.349.97-1.441.181-2.3-.776-.014-.026-.04-.052-.066-.078l-2.552-2.663c-.687-.646-1.811-2.043-3.371-2.081-.7-.013-1.837-.207-2.339.284-.728.724-.847 1.331-.661 2.508.158.918.7 1.939 1.176 2.56.225.284.37.491.476.672.568.776 1.124 1.474 1.666 2.12l1.163 1.202c.33.362.582.504.899.892.119.155.264.323.41.504 3.027 2.792 5.433 3.607 6.807 3.826.423 0 .846 0 1.27.039.819 1.034 1.454 2.133 2.353 3.116l.965 1.396c.409.633.978 1.125 1.374 1.771.661 1.112 1.758 2.133 2.327 3.154l6.623 8.61c.727.944 2.287 2.521 3.186 3.801.594.853 1.374 1.396 1.996 2.146.528.633 0 .297.885.685-.013-.517-.145-.582-.409-.892-.278-.336-.291-.439-.556-.814l-1.877-2.237c-.33-.414-.224-.491-.502-.866-.357-.465-.833-1.008-1.229-1.525l-4.085-5.533c-.185-.297-.304-.491-.569-.763a.35.35 0 0 0-.079-.065l-2.274-3.09c-.238-.284-.357-.569-.542-.853-.171-.258-.423-.465-.621-.737l-5.42-6.916c-.185-.233-.238-.246-.211-.75.357-.077.595-.065.872-.116.807-.168 2.75-1.306 3.397-2.094l.344-.478c1.401-1.926 2.036-8.92 2.697-11.505.33-1.306.806-3.865 1.454-4.964.568-.957.899-1.836 1.97-2.392.542-.284 1.097-.362 1.295-.853l-.172-.297c-.264-.349-.568-.582-.687-1.112h.026l-4.507-7.588h-36.208c-2.128 0-5.393-.181-7.389.065 0 .776 2.696 3.387 3.212 4.033.225.271.145.168.396.414l2.393 2.275c.397.401.45.672 1.243.724 1.454.09.952.181.952 2.547v25.48c0 2.056-.45 2.172 1.771 3.736l.701.543c.489.44 3.648 3.18 4.283 3.322l.37-.013c.039 0 .092-.013.132-.026zm71.912-43.101l-11.659-.065c-.542 0-.476-.052-.872.168.132.465.872 1.125 1.189 1.577.793 1.164 3.993 4.538 5.129 5.481.344.284.595.323.965.323.119 1.448.014 14.634.014 16.534 0 .465-.053.879-.159 1.254-.172.633-.476 1.176-.82 1.655-2.088 3.374-5.961 5.649-5.961 5.649-9.082 6.619-15.533 2.715-15.533 2.715-.093-.039-.172-.078-.278-.129-.7-.349-.238-2.469-.066-2.986.159-.44.185-.931.331-1.357.383-1.138 1.956-3.116 2.855-3.969.608-.582 1.044-1.112 1.798-1.629 3.966-3.219 9.333-4.512 9.333-4.512.211-.569-.053-.698-.437-1.099l-1.282-1.461c-.013-.026-.04-.052-.066-.078l-1.785-1.926c-.237-.258-.502-.569-.766-.892-.701-.853-1.838-2.327-2.803-2.004l-.264.142-.278.142c-.026.013-.066.026-.092.039-4.534 2.12-6.412 2.573-7.139 2.637-1.969-1.861-.806-5.908-.806-5.908 0-2.017 5.605-8.623 5.605-8.623 3.067-4.434 5.645-2.508 5.645-2.508 3.238 4.137-3.781 6.334-3.781 6.334-3.358.323-2.089 1.758-2.089 1.758l4.283 3.633c4.733 3.116 6.583-4.059 6.583-4.059 2.195-7.666-7.244-12.578-7.244-12.578-8.13-1.913-13.616 7.252-13.616 7.252-3.291 5.326-1.758 9.592-1.758 9.592 1.494 3.154 3.199 5.598 5.169 7.227l-.225.233c-.105.103-.145.155-.277.284l-1.428 1.59c-1.137 1.215-1.547 2.482-2.274 3.891-.647 1.293-.238 3.956.397 5.106 1.322 2.417 3.001 4.059 4.917 6.05 1.203 1.241 2.261 2.573 3.53 3.749.436.401.701.556 1.084.97 7.39 5.947 17.463 1.086 17.463 1.086l2.286-1.422c1.745-1.215 1.243-.621 2.684.375.357.246.449.284.714.543.581.543 2.789 2.353 3.45 2.353.635.013.489-.776.489-1.228V39.123c0-2.107.119-3.064.37-4.887.225-1.59 1.877-3.387 3.305-4.033l.198-.103c.027-.013.066-.039.093-.052l1.996-.582c.211 1.021.026 25.584.026 29.307 0 1.435 1.23 1.965 2.512 3.064.529.44 1.018.814 1.533 1.228.82.646 2.155 2.017 3.332 2.249.145-3.31.026-6.878.026-10.2 0-4.176-.264-17.026.225-20.232.317-2.107 1.428-3.749 3.239-4.538 1.533-.659 1.282-.323 2.035-.595-.052-.879-3.41-3.064-4.309-4.059-.013-.013-.04-.052-.066-.065-.013-.026-.04-.052-.066-.078l-.119-.168c-.357-.453-.542-.453-.926-.84-.727-.737-.938-1.073-1.811-1.771-1.295-1.06-.515-.892-2.736-.892h-11.012zm-218.434.129c.185.452.41.517.727.982l.344.478 2.987 3.322c.41.375.542.401.939.84.344.401 1.401 1.577 1.877 1.719 1.891.556 13.418-.633 14.264.233.238.246.158.22.158.711.053 3.051.965 8.545-1.031 10.601-.264.259-.304.31-.529.595-.846 1.138-2.273 2.12-3.635 2.689-.304.129-.396.116-.7.272-.344.181-.106.297-.873.284-.701-.026-1.811-1.383-2.366-1.965-.397-.414-.648-.698-1.018-1.034-.582-.53-1.071-1.215-1.824-1.396-1.031-.233-1.587.116-1.772 1.267-.33 2.198 2.353 4.628 3.821 6.128l.211.207.516.569c.026.026.053.052.066.078 1.322 1.603 2.829 2.65 4.005 4.369.265.388.635.789.926 1.151l4.825 6.425c.647.814 1.203 1.887 1.903 2.637l1.639 2.327a16.17 16.17 0 0 1 .886 1.189c.331.504.529.789.859 1.189.331.375.595.633.912 1.021l3.874 5.055c.357.517-.027.039.528.53.635.556 1.045 1.435 1.666 2.055l.132.142c.027.013.053.052.08.065.74.737 1.203 1.37 1.863 2.133l2.763 3.128c.767.672 1.296 1.461 2.036 2.081l1.56 1.487c.132.116.132.103.225.194l.066.065c1.56 1.603 3.001 3.232 4.745 4.615 1.388 1.086 2.327 2.314 3.834 3.297.476.323.727.582 1.19.879.185.129.37.272.555.414l6.689 3.684c.026.026.066.039.092.052l1.362.582.476.194c.026.013.053.039.092.052l.754.297c.555.168 1.097.271 1.414.452.014.013.04.026.053.039 4.799 1.461 15.48 3.439 29.334-1.797l.938-.453c.146-.078.146-.065.291-.129l2.67-1.59c.701-.44 1.494-.801 2.115-1.319l9.968-7.421c.145-.09.383-.233.502-.323l3.913-2.172a4.87 4.87 0 0 0 .251-.155l1.401-.595s9.531-4.887 15.877 2.198v-.013c-9.214-14.22-20.688-10.42-22.658-9.644-.093.039-.185.091-.291.129l-.463.194c-2.974 1.267-2.313 1.112-4.864 2.611-1.666.983-2.882 2.249-4.429 3.284l-5.129 3.852c-.291.272-.767.543-1.123.789-1.045.711-2.221 1.551-3.358 2.133l-3.146 1.564c-.146.065-.291.142-.45.194-6.953 3.904-14.633 3.128-14.633 3.128-10.338.646-14.264-2.224-14.264-2.224l-7.019-3.129c-.225-.103-.093-.026-.278-.142-.092-.065-.37-.258-.476-.349l-4.957-3.465c-.278-.207-.436-.401-.74-.621l-2.353-2.055c-.027-.013-.053-.052-.08-.065l-3.939-4.318c-.211-.284-.317-.478-.582-.789l-3.119-3.878c-.225-.272-.318-.453-.569-.789l-1.85-2.417c-.186-.246-.305-.504-.529-.827l-6.002-8.144c-.211-.323-.37-.414-.608-.788l-6.041-8.015c.489-.194 1.058-.142 1.666-.129.396-.052.832-.129 1.295-.246.119-.065.291-.129.648-.194.026 0 .053-.013.079-.013 1.692-.517 3.675-1.513 5.261-3.374.357-.465.661-.905.939-1.293.172-.233.344-.465.515-.646l.318-.297c.674.272 1.427 1.293 2.009 1.913.74.788 1.428 1.293 2.313 1.952l.423.246c1.481 1.047 3.292 2.081 4.707 2.107.237.142.171.517.171 2.249 0 .905-.238 7.291.225 7.886.238.31.965.853 1.362 1.241 1.229 1.176 3.529 2.767 4.93 3.891l.529.284c.833.116.503-2.017.503-2.508V44.268c0-3.361-.238-7.058.33-10.122.37-1.952 2.102-3.361 3.847-4.124.568-.246.674-.065 1.176-.233.622-.207-.066-.349 1.071-.349 4.428 0 8.883-.142 13.312.026.119 2.392.026 4.809.013 7.214 0 1.332-.185 2.107-.608 3.116-.701 1.642-3.252 3.943-5.169 4.512-.899.259-.264.478-1.546.375-.41-.129-2.102-2.172-2.512-2.586-.502-.491-.859-.801-1.362-1.267-2.075-1.926-4.838.827-.158 5.585l2.168 2.379c.357.44.713.737 1.15 1.176 1.969 1.939 1.612 1.732 4.151 2.767.37.155.356.168.581.478.027.026.04.052.066.078l2.433 3.335c.37.427.608.944.978 1.37l12.426 16.25c.119.194.092.168.211.349l4.68 5.081c.013.013.04.052.066.065.383.414.727.892 1.322 1.086-.04-.504-.013-.233-.159-.478l-.37-.44c-.026-.013-.053-.039-.079-.065l-.264-.272c-.661-.672-1.111-1.551-1.745-2.249l-4.006-5.171c-.489-.595-.899-1.254-1.348-1.823-.661-.84-2.287-2.65-2.67-3.49-.384-.827-1.983-2.883-2.552-3.633l-3.357-4.331c-.238-.297-.384-.556-.622-.892l-4.098-5.132 2.155-.595c.529-.116.317-.09.687-.284.609-.323 1.653-.659 2.644-1.228 1.335-.763 2.79-2.715 3.398-4.163.515 0 .423-.09.793.181l1.573 1.706c.026.026.106.103.145.129.648.659 1.296 1.177 2.01 1.694 1.956 1.37 5.433 3.077 8.698 1.138l.119-.078c.053-.026.092-.052.132-.078l.026-.013c.701-.452.767-.53 1.574.465.978 1.215 4.996 5.326 6.239 6.141l1.785 1.008s4.217 2.081 10.377.323h.013c.37-.116.106-.039.304-.103s-.066-.078.397-.103c.317.789.343.982.647 1.28 0 0 4.72 4.641 6.478 5.029a1.85 1.85 0 0 0 .515.078c.41-4.176-.264-8.881.04-13.109.026-.336.066-.582.132-.789.463-2.418 2.446-9.657 9.769-10.95.093-.078.119-.116 1.044-.129.595-.052 1.203-.078 1.851-.052 0 0 1.811.22 2.3 2.068.027.116.066.233.106.362.449 1.422.648 2.844.648 4.473 0 3.814-2.115 7.537-5.645 8.933-.714.284-.198.09-.661.453.251.698.053.103.82 1.138l1.229 1.383c.674.84 1.573 1.5 2.181 2.353 1.904 2.624 2.538 2.909 5.301.879 2.115-1.564 3.516-4.718 3.516-7.278 0-2.146-.277-3.297-.687-5.326-.278-1.409-1.269-3.542-2.221-4.706l-4.296-5.184-3.609-3.542c-.383-.375-.767-.776-1.203-1.138l-.581-.375-.727-.465c-2.618-1.461-5.777-1.099-7.549-.724-.066.026-.171.065-.343.116l-.556.155c-.224.065.159.091-.449.091.264-.711.053-.815.582-1.422.647-.776 1.176-1.409 2.009-1.991.648-.453 1.428-.685 2.181-.866-.158-.595-.013-.336-.41-.788l-1.586-1.422c-.344-.271-.767-.53-1.084-.853l-.793-.711c-1.163-1.034-2.115-2.288-3.278-3.322-.516-.452-.516-.763-1.336-.763h-39.366c-.529 0-.476-.052-.873.168.132.465.873 1.125 1.19 1.577.806 1.163 4.005 4.538 5.129 5.481.529.44.859.297 1.679.297h27.218c.569 0 1.084-.052 1.005.582l-.238 1.551c0 .737.198 3.051-.132 3.452-.093.078.132.259-.37.052-.344-.142-2.01-2.133-4.046-3.128l-.978-.504a15.43 15.43 0 0 0-4.322-1.151c-.133.013-.225.013-.291 0h-.053l-.185-.039c-2.433-.194-5.367.207-8.566 1.887-3.781 2.586-4.495 6.852-4.495 6.852-1.507 3.154-4.296 4.615-4.296 4.615-1.216.815-2.194 1.267-2.974 1.487a3.13 3.13 0 0 0-.225.155c-.093 0-.198-.013-.344-.013-1.507.271-2.075-.362-2.075-.362-.119-.052-.265-.103-.423-.155-.344-2.495.304-10.614-.106-12.165-.119-.478-2.208-2.741-2.802-3.516-.384-.504-.609-.608-1.045-1.021l-5.063-5.249c-.449-.453-.595-.853-1.388-.853-3.714 0-14.885-.181-17.78.052l.159.543c.701.944 1.851 2.043 2.617 3.025.252.323.119.271.318.582-.41-.065-.45-.142-.648-.375l-1.838-1.887c-.779-.802-1.308-1.939-2.643-1.939-3.133 0-10.298-.22-12.982.129.172.401.661.776.926 1.047.33.336.595.789.899 1.163l2.789 2.973c.582.569 1.494 1.887 2.274 2.146 1.573.504 2.115-.763 2.049 1.383-.014.453-.014.905-.014 1.357 0 1.642.278 7.214-.132 8.144-.568 1.306-2.102 2.973-3.265 3.697-.635.388-2.366 1.267-3.014 1.267-2.234 0-1.441-.013-3.371-.62-.145-3.827-.013-7.705-.092-11.544-.093-4.382.449-2.689-2.168-5.766l-3.874-4.111c-.78-.737-.608-.181-1.269-.672-.7-.517-.185-.595-1.507-.595-3.701 0-16.391-.22-19.128.129zm-22.393-.078c-.093.026-.198.052-.344.065-1.388.168-10.218-.246-10.668.104-.132.142-.238-.207-.013.297l.859 1.06c.436.491.78.905 1.203 1.396.74.866 2.261 2.172 2.459 2.754l1.97 1.758c.965.401 21.362-.375 21.97.207.357.349.159 2.818.159 3.322 0 .53.211 2.947-.159 3.309-.529.543-12.849.026-15.414.181-.859.052-.317.103-1.533.517-.648.22-.145.026-.489.246-1.401.879-1.586 1.37-2.3 1.823-.423-.129-.476-.284-.793-.569-1.93-1.668-1.137 1.59-3.252 3.555-.661-.233-1.229-.918-1.811-1.357l-.912-.724c-.621-.621-2.776-2.107-3.582-2.767l-5.354-4.15c-.423-.297-.516-.297-.582-.892-.079-.672-.145-2.495.106-2.96 1.163-.517 5.486.22 6.861-.246-.132-.53-.053-.284-.397-.646l-1.176-1.28c-.344-.362-.568-.595-.846-.931-.317-.362-.582-.465-.859-.776l-2.617-2.624c-.145-.155-.304-.452-.463-.672H63.241v-.026c-.582-.065-.463-.349-.806-1.37l-.119-.284c-.04-.129-.053-.194-.093-.31-.04-.142-.106-.336-.145-.53-.846-3.568-.634-7.046 1.93-9.657.079-.09.159-.155.225-.22 1.282-1.151 4.812-3.297 11.937-1.409 0 0 4.534.84 15.189 9.657l-.119.026.185.155c-.093-.233-.119-.297-.159-.362C74.464.03 64.827-.513 61.271.172c-.053.039-.145.078-.383.129-.331.065-.529.116-.674.168a1.37 1.37 0 0 0-.278.103c-.145.065-.317.168-.674.323-1.137.504-2.366 1.5-2.974 2.598-2.036 3.697-1.718 7.472-.159 11.092.886 2.055.925 2.508 2.432 4.576l.806 1.112c.198.233.344.465.542.711.714.853.41.685.278.789-1.005.465-18.811-.142-24.561.078 0 0-.569-.039-.952.052-.106.013-.198.013-.278.026v.103c-.145.142-.093.388.463.801 0 0 3.741 5.003 6.226 6.58l1.441.052c.106 2.004-.013 4.357-.013 6.399 0 2.004-.489 3.31-1.309 5.145-.516 1.138-1.203 2.353-2.049 3.387-4.204 5.236-8.685 4.072-10.324 3.387-.45-.065-.608-.052-.648-.31s.027-.801.027-1.991V30.992c0-.388-.159-1.254.198-1.5.991-.724 8.13.982 6.874-.84-.079-.116-.357-.401-.463-.517-.568-.543-.502-.582-.952-1.112-.608-.737-4.389-4.925-5.076-5.106-.608-.168-17.317-.103-18.705-.013.013.659-.04.284.344.763 1.018 1.254 5.195 6.309 6.213 6.696.529.207 3.715.039 4.64.129.198 3.775.04 8.093.026 11.932-.013 1.68.251 1.758 1.414 3.064.304.336.489.388.767.75 1.348 1.797 2.842 3.103 4.362 4.706.555.582.859 1.021 1.494 1.526l1.838 1.461c.516.375 1.203.866 1.943 1.293a.7.7 0 0 0 .066.039c.41.246.846.478 1.269.659 0 0 4.614 1.422 7.707.168l.344-.155c.013 1.228-.132 3.271.013 4.37.106.827 2.115 2.159 2.842 2.767.304.258.41.258.661.452l2.446 1.952c.344.246.727.685 1.163.724l.423-1.138v-19.65c0-3.387-.568-9.217 1.071-11.945.595-.982 1.362-1.758 2.432-2.198l.304-.116c.04-.013.066-.039.106-.052.397-.194 1.586-.556 2.128-.556l-.225 26.786c0 .853-.053 1.887 0 2.715.066 1.215 1.732 2.198 2.591 2.896 1.309 1.06 3.305 3.103 4.997 3.387.119-6.761.013-13.613.013-20.374 0-3.219-.568-9.308.714-12.036.264-.556.687-.983 1.137-1.422.185-.181.476-.453.648-.582.212-.142.264-.142.436-.271l.978-.53c.212-.103.066-.052.264-.142.41-.207.608-.168 1.124-.129.423 2.534-.423 11.169.145 12.734.291.801 2.604 2.935 3.424 3.982l1.137 1.345c1.375 1.784 5.063 4.964 7.231 6.179.053.026 6.279 2.844 11.117-.944l.053-.052c.278-.233.476-.414.634-.53.516-.414.542-.181 1.229.737l.172.246c.674.879 1.441 1.551 2.141 2.379.304.362.344.504.701.84 2.631 2.495 5.882 6.438 9.65 7.744l.991.44.093.039c.198.078.687.284 1.401.504.119.013.211.026.436.129a14.14 14.14 0 0 0 1.005.246 1.55 1.55 0 0 1 .476.065 1.27 1.27 0 0 1 .238.078c2.749.478 6.596.465 9.914-2.068.264-.258.463-.491.872-.827-.132-.478-5.71-6.593-6.437-7.214-1.745 1.551-7.073 5.274-14.991 1.681-1.018-.427-2.472-1.125-2.736-1.577-.899-1.577-.938-5.985-.026-7.627.225-.388.436-.827.621-1.138l.502-.737c.701-.905 1.282-1.357 2.247-1.888l1.243-.543c1.097-.595 15.294.362 16.008-.284.37-.336.159-10.639.159-11.027 0-2.689.211-2.392-1.415-4.201l-5.525-5.753c-.503-.491-.608-.75-1.084-.866h-16.22zm-9.042 23.89c.41-.349.793-.711 1.15-1.163l1.454-1.926-7.31-5.649c-.687-.439-.833-.724-1.441-1.163-.687-.491-2.446-1.991-3.318-1.978v13.82s4.508 2.495 9.465-1.939zm137.096-.258a.23.23 0 0 0 .027-.103c.079-.246.119-.53.119-.918v-4.667l.039-1.913c-5.168-2.055-10.007.44-10.007.44-1.361.569-2.67 1.422-3.503 2.43-.687.827-1.811 2.185-2.234 3.115-.224.504-.37.711-.555 1.215-.225.646-.33.595-.463 1.28-.119.685-.251.789-.29 1.487-.066 1.138-.08 2.43.079 3.426.026.129.04.246.053.336l.013.013c.04.246.066.349.185.414.502.659 2.194 1.745 7.971.478 0 0 7.086-2.792 8.566-7.033zm147.923-16.043c.04.608.185 9.256-.013 9.98-.106.362.053.065-.145.284-.489.401-8.672.129-10.298.116-1.137 0-1.732.31-2.631.892-.952.595-.714 1.293-.647 2.676.026.336.039.504.066.595-.014.595.277 1.047.277 1.047l1.772 1.926c.026.026.039.065.066.078.185.233.172.233.304.323l6.49 7.045c2.816 3.646 5.103 5.701 6.808 6.865.45.401.952.724 1.507.918l1.203.569c.304.039.569.052.793.039 1.296-.078 1.243-1.073 1.23-2.469l-.014-11.945c0-.478-.079-.608.159-.866.397-.349 6.226-.284 6.901-.039.528.478-.291 34.323.145 35.202l4.693 3.969c.806.582 1.652 1.435 2.723 1.357.238-14.802.026-29.656.013-44.471 0 0-1.665-11.247 8.355-13.471a.72.72 0 0 0 .079-.103c-.304-.595-.965-1.086-1.494-1.5-.965-.801-1.969-1.435-2.829-2.392-.634-.724-1.322-1.383-2.009-2.12l-1.97-2.133c-.766-.026-18.916-.155-20.556-.013-1.401.116.146 1.047 1.111 2.327l1.943 2.185c.476.556.925.957 1.428 1.474 1.85 1.913 1.308 1.538 4.032 1.538.978 0 5.036-.194 5.538.129.133.168.225-.258.053.388l-.581 1.603c-.939 2.456-.185 5.882-.635 8.313-1.282.22-5.975.207-7.085-.104-.066-2.534.172-5.145 0-7.666-.08-1.112-1.441-2.262-2.181-3.09l-5.579-6.115c-.225-.22-.423-.53-.648-.724-.608-.53-8.962-.258-10.364-.258-1.52 0-4.031-.142-5.419.065.026.659-.067.116.185.44l1.163 1.306c.013.013.04.052.066.065l.516.711c.581.892 1.401 1.681 2.22 2.456l1.904 1.952c.687.685.648.569 1.732.569 2.511-.013 7.574-.259 9.623.078zm-1.811 25.752c1.6 0 1.745.052 1.745-1.383 0-1.564.079-5.093-.079-6.438l-4.31-.026c-1.546 0-2.829 1.629-2.458 3.193.105.465 2.009 2.508 2.591 3.141l1.559 1.332c.41.233.371.181.952.181zM158.459 20.391c.528-1.008-.437-.155 1.348-2.185.872-.982 2.142-1.771 3.596-3.555.251-.31.462-.608.621-.879.727-1.215-.436-3.154-1.89-4.887l-1.336-1.461c-.013-.013-.052-.065-.105-.129-.159-.155-.318-.31-.463-.465l-1.771-1.629-.688-.621c-.158.349-.119.685-.119.685-.198 2.043-3.741 4.551-3.754 4.563-.41.349-.899.763-1.666 1.693-1.084 1.293-.238 2.172.886 3.503l4.283 4.667c.397.388.383.517 1.058.698z" fill="#c1282d"/></svg>