<svg width="27" height="20" viewBox="0 0 27 20" fill="none" xmlns="http://www.w3.org/2000/svg">
<path fill-rule="evenodd" clip-rule="evenodd" d="M15.0646 1.43934C14.4788 2.02513 14.4788 2.97487 15.0646 3.56066L21.5039 10L15.0646 16.4393C14.4788 17.0251 14.4788 17.9749 15.0646 18.5607C15.6504 19.1464 16.6001 19.1464 17.1859 18.5607L24.6859 11.0607C25.2717 10.4749 25.2717 9.52513 24.6859 8.93934L17.1859 1.43934C16.6001 0.853553 15.6504 0.853553 15.0646 1.43934Z" fill="#DED9C0"/>
<path fill-rule="evenodd" clip-rule="evenodd" d="M1 10C1 9.17157 1.67157 8.5 2.5 8.5H23.0714C23.8999 8.5 24.5714 9.17157 24.5714 10C24.5714 10.8284 23.8999 11.5 23.0714 11.5H2.5C1.67157 11.5 1 10.8284 1 10Z" fill="#DED9C0"/>
<path d="M15.0646 3.56066L15.7717 2.85355L15.0646 3.56066ZM15.0646 1.43934L15.7717 2.14645L15.0646 1.43934ZM21.5039 10L22.211 9.29289C22.3986 9.48043 22.5039 9.73478 22.5039 10C22.5039 10.2652 22.3986 10.5196 22.211 10.7071L21.5039 10ZM15.0646 16.4393L14.3575 15.7322L14.3575 15.7322L15.0646 16.4393ZM15.0646 18.5607L14.3575 19.2678L14.3575 19.2678L15.0646 18.5607ZM17.1859 18.5607L17.893 19.2678H17.893L17.1859 18.5607ZM24.6859 11.0607L25.393 11.7678H25.393L24.6859 11.0607ZM24.6859 8.93934L25.393 8.23223H25.393L24.6859 8.93934ZM17.1859 1.43934L17.893 0.732233V0.732233L17.1859 1.43934ZM15.0646 3.56066L14.3575 4.26777C13.3812 3.29146 13.3812 1.70854 14.3575 0.732233L15.0646 1.43934L15.7717 2.14645C15.5764 2.34171 15.5764 2.65829 15.7717 2.85355L15.0646 3.56066ZM21.5039 10L20.7968 10.7071L14.3575 4.26777L15.0646 3.56066L15.7717 2.85355L22.211 9.29289L21.5039 10ZM15.0646 16.4393L14.3575 15.7322L20.7968 9.29289L21.5039 10L22.211 10.7071L15.7717 17.1464L15.0646 16.4393ZM15.0646 18.5607L14.3575 19.2678C13.3812 18.2915 13.3812 16.7085 14.3575 15.7322L15.0646 16.4393L15.7717 17.1464C15.5764 17.3417 15.5764 17.6583 15.7717 17.8536L15.0646 18.5607ZM17.1859 18.5607L17.893 19.2678C16.9167 20.2441 15.3338 20.2441 14.3575 19.2678L15.0646 18.5607L15.7717 17.8536C15.967 18.0488 16.2835 18.0488 16.4788 17.8536L17.1859 18.5607ZM24.6859 11.0607L25.393 11.7678L17.893 19.2678L17.1859 18.5607L16.4788 17.8536L23.9788 10.3536L24.6859 11.0607ZM24.6859 8.93934L25.393 8.23223C26.3693 9.20854 26.3693 10.7915 25.393 11.7678L24.6859 11.0607L23.9788 10.3536C24.1741 10.1583 24.1741 9.84171 23.9788 9.64645L24.6859 8.93934ZM17.1859 1.43934L17.893 0.732233L25.393 8.23223L24.6859 8.93934L23.9788 9.64645L16.4788 2.14645L17.1859 1.43934ZM15.0646 1.43934L14.3575 0.732233C15.3338 -0.244078 16.9167 -0.244078 17.893 0.732233L17.1859 1.43934L16.4788 2.14645C16.2835 1.95118 15.967 1.95118 15.7717 2.14645L15.0646 1.43934ZM2.5 8.5V9.5C2.22386 9.5 2 9.72386 2 10H1H0C0 8.61929 1.11929 7.5 2.5 7.5V8.5ZM23.0714 8.5V9.5H2.5V8.5V7.5H23.0714V8.5ZM24.5714 10H23.5714C23.5714 9.72386 23.3476 9.5 23.0714 9.5V8.5V7.5C24.4521 7.5 25.5714 8.61929 25.5714 10H24.5714ZM23.0714 11.5V10.5C23.3476 10.5 23.5714 10.2761 23.5714 10H24.5714H25.5714C25.5714 11.3807 24.4521 12.5 23.0714 12.5V11.5ZM2.5 11.5V10.5H23.0714V11.5V12.5H2.5V11.5ZM1 10H2C2 10.2761 2.22386 10.5 2.5 10.5V11.5V12.5C1.11929 12.5 0 11.3807 0 10H1Z" fill="#DED9C0"/>
</svg>
